<svg width="200" height="38" viewBox="0 0 200 38" fill="none" xmlns="http://www.w3.org/2000/svg">
<path fill-rule="evenodd" clip-rule="evenodd" d="M33.3887 1.68457C39.7553 1.68457 44.9103 6.82433 44.9103 13.1721V27.9992H21.8672V13.1721C21.8672 6.82433 27.0222 1.68457 33.3887 1.68457ZM28.7801 10.0929C27.4498 10.0929 26.3808 11.1588 26.3808 12.4852C26.3808 13.8116 27.4498 14.8774 28.7801 14.8774C30.1104 14.8774 31.1795 13.8116 31.1795 12.4852C31.1795 11.1588 30.1104 10.0929 28.7801 10.0929ZM37.2847 10.0929C35.9544 10.0929 34.8854 11.1588 34.8854 12.4852C34.8854 13.8116 35.9544 14.8774 37.2847 14.8774C38.615 14.8774 39.684 13.8116 39.684 12.4852C39.684 11.1588 38.615 10.0929 37.2847 10.0929Z" fill="#576270"/>
<path fill-rule="evenodd" clip-rule="evenodd" d="M33.3888 4.33691C39.7553 4.33691 44.9103 8.15029 44.9103 17.7666V33.9912C44.9103 34.7255 44.3164 35.2939 43.6038 35.2939C42.8673 35.2939 42.2972 34.7018 42.2972 33.9912V30.3436C42.2972 29.6804 41.727 29.1594 41.0144 29.1357H40.9906C40.2779 29.1357 39.684 29.6568 39.684 30.3199V31.9543C39.684 32.6411 39.1377 33.1859 38.4487 33.1859C37.7598 33.1859 37.2134 32.6411 37.2134 31.9543V30.3436C37.2134 29.6804 36.6433 29.1594 35.9306 29.1357H35.9069C35.1942 29.1357 34.6003 29.6568 34.6003 30.3199V30.6515C34.6003 31.3384 34.0539 31.8832 33.365 31.8832C32.6761 31.8832 32.1297 31.3384 32.1297 30.6515V30.3436C32.1297 29.6804 31.5596 29.1594 30.8469 29.1357H30.8231C30.1105 29.1357 29.5166 29.6568 29.5166 30.3199V31.9543C29.5166 32.6411 28.9702 33.1859 28.2813 33.1859C27.5924 33.1859 27.046 32.6411 27.046 31.9543V30.3436C27.046 29.6804 26.4758 29.1594 25.7632 29.1357H25.7394C25.0267 29.1357 24.4328 29.6568 24.4328 30.3199V30.3436V34.0623C24.4328 34.7491 23.8865 35.2939 23.1975 35.2939C22.5086 35.2939 21.9622 34.7491 21.9622 34.0623V13.7401C21.8672 7.88975 27.0222 4.33691 33.3888 4.33691ZM28.7801 10.0925C27.4498 10.0925 26.3808 11.1584 26.3808 12.4847C26.3808 13.8111 27.4498 14.877 28.7801 14.877C30.1105 14.877 31.1795 13.8111 31.1795 12.4847C31.1795 11.1584 30.1105 10.0925 28.7801 10.0925ZM37.2847 10.0925C35.9544 10.0925 34.8854 11.1584 34.8854 12.4847C34.8854 13.8111 35.9544 14.877 37.2847 14.877C38.615 14.877 39.684 13.8111 39.684 12.4847C39.684 11.1584 38.615 10.0925 37.2847 10.0925Z" fill="#576270"/>
<path fill-rule="evenodd" clip-rule="evenodd" d="M33.4601 18.1224C34.5291 18.1224 35.3131 17.3407 35.3131 16.7723C35.3131 16.5591 35.1706 16.3696 34.9568 16.346C34.6242 16.2986 34.1015 16.4881 33.4601 16.4881C32.8425 16.4881 32.4861 16.3223 32.011 16.3223C31.5359 16.3223 31.5597 16.8433 31.6309 17.0328C31.7972 17.5776 32.3911 18.1224 33.4601 18.1224Z" fill="white"/>
<path fill-rule="evenodd" clip-rule="evenodd" d="M107.744 1.68482C109.027 1.7085 110.144 2.51381 110.595 3.6744L110.666 3.86389L122.425 32.2865C122.52 32.4997 122.568 32.7129 122.568 32.926V33.0918C122.592 33.6603 122.402 34.2287 121.998 34.6788C121.594 35.1051 121.024 35.3183 120.43 35.2946C120.002 35.2946 119.575 35.1525 119.218 34.8919C118.91 34.6551 118.672 34.3709 118.482 34.0393L118.387 33.8261L107.198 6.01927L103.065 16.2277H105.06C106.153 16.2277 107.055 17.0804 107.15 18.1699V18.3358V18.3831C107.15 19.4727 106.295 20.3727 105.226 20.4911H105.06H101.354L95.9615 33.8261C95.7952 34.2524 95.4864 34.6077 95.1301 34.8919C94.7737 35.1525 94.3461 35.2946 93.9185 35.2946C93.3246 35.3183 92.7545 35.1051 92.3506 34.6788C91.9705 34.2524 91.7567 33.684 91.7805 33.0918C91.7805 32.8787 91.8043 32.6892 91.8755 32.476L91.9468 32.2865L96.8167 20.4674H94.7262C93.6335 20.4674 92.7307 19.6148 92.6357 18.5252V18.3358C92.6357 17.2462 93.4909 16.3462 94.5599 16.2277H94.7262H98.6459L103.753 3.8402C104.134 2.63224 105.226 1.77956 106.485 1.66113H106.699H107.744V1.68482ZM72.6096 1.68482C73.8924 1.7085 75.0327 2.49013 75.484 3.6744L75.5553 3.86389L87.3144 32.2865C87.3857 32.476 87.4332 32.6892 87.4569 32.8787V33.2813C87.4332 33.8024 87.2431 34.2761 86.8868 34.6788C86.483 35.1051 85.9128 35.3183 85.3189 35.2946C84.8913 35.2946 84.4637 35.1525 84.1074 34.8919C83.7986 34.6551 83.561 34.3709 83.371 34.0393L83.2759 33.8261L72.087 6.01927L68.001 16.2277H69.9964C71.113 16.2277 72.0157 17.0804 72.1107 18.1699V18.3358V18.3831C72.1107 19.4963 71.2555 20.3964 70.1627 20.4911H69.9964H66.2668L60.8742 33.8261C60.7079 34.2524 60.3991 34.6077 60.0428 34.8919C59.6864 35.1525 59.2588 35.2946 58.8312 35.2946C58.2373 35.3183 57.6672 35.1051 57.2633 34.6788C56.8832 34.2524 56.6694 33.684 56.6932 33.0918C56.6932 32.8787 56.717 32.6892 56.7882 32.476L56.8595 32.2865L61.7294 20.4674H59.6389C58.5462 20.4674 57.6434 19.6148 57.5484 18.5252V18.3358C57.5484 17.2462 58.4036 16.3462 59.4726 16.2277H59.6389H63.5111L68.6186 3.8402C68.9987 2.63224 70.0915 1.77956 71.3505 1.66113H71.5643H72.6096V1.68482ZM121.76 1.68482C122.188 1.68482 122.616 1.82693 122.972 2.08747C123.328 2.3717 123.637 2.72698 123.803 3.15332L134.992 30.9601L146.181 3.15332C146.371 2.72698 146.656 2.3717 147.013 2.08747C147.369 1.82693 147.797 1.68482 148.224 1.68482C148.794 1.66113 149.365 1.8743 149.768 2.30064C150.172 2.72698 150.362 3.29543 150.362 3.88757C150.362 4.1718 150.315 4.43234 150.22 4.69288L138.461 33.1155C138.057 34.3945 136.869 35.2709 135.515 35.2946H134.47C133.116 35.2709 131.928 34.3945 131.524 33.1155L119.765 4.69288C119.67 4.43234 119.622 4.1718 119.622 3.88757C119.599 3.29543 119.812 2.75067 120.192 2.30064C120.62 1.8743 121.19 1.63745 121.76 1.68482ZM175.995 1.89799C176.541 1.8743 177.064 2.11116 177.444 2.51381C177.848 2.89278 178.062 3.41386 178.062 3.95863C178.085 4.5034 177.848 5.00079 177.444 5.37976C177.064 5.75873 176.541 5.9719 175.995 5.9719H159.104V16.4646H174.284C174.831 16.4409 175.353 16.6778 175.733 17.0804C176.114 17.4594 176.351 17.9805 176.351 18.5252C176.375 19.07 176.137 19.5674 175.733 19.9464C175.353 20.3253 174.831 20.5385 174.284 20.5385H159.104V31.0786H175.995C176.541 31.0549 177.064 31.2917 177.444 31.6944C177.848 32.0734 178.062 32.5944 178.062 33.1392C178.085 33.684 177.848 34.1814 177.444 34.5603C177.064 34.9393 176.541 35.1525 175.995 35.1288H156.895C156.325 35.1762 155.755 34.9393 155.375 34.513C154.971 34.1103 154.757 33.5656 154.757 32.9971V4.10074C154.733 3.5086 154.971 2.96384 155.375 2.5375C155.779 2.11116 156.325 1.89799 156.895 1.92167H175.995V1.89799Z" fill="#576270"/>
</svg>
