<svg width="253" height="54" viewBox="0 0 253 54" fill="none" xmlns="http://www.w3.org/2000/svg">
<path d="M0 38.6972L10.0199 21.8054C9.62715 21.3437 9.39055 20.7477 9.39055 20.0969C9.39055 19.866 9.42034 19.642 9.47633 19.4284L0 14.2191V38.6972Z" fill="#576270"/>
<path d="M0.668329 40.4001L22.9545 53.4681L12.5801 35.9787C12.416 36.0097 12.2467 36.0259 12.0735 36.0259C11.3079 36.0259 10.6172 35.7086 10.1284 35.1996L0.668329 40.4001Z" fill="#576270"/>
<path d="M25.3396 53.4679L47.6255 40.4L38.1655 35.1996C37.6767 35.7086 36.986 36.0259 36.2204 36.0259C36.0472 36.0259 35.8779 36.0097 35.7139 35.9787L25.3396 53.4679Z" fill="#576270"/>
<path d="M48.2937 38.6968V14.2192L38.8176 19.4284C38.8736 19.642 38.9034 19.866 38.9034 20.0969C38.9034 20.7477 38.6668 21.3437 38.2741 21.8054L48.2937 38.6968Z" fill="#576270"/>
<path d="M47.6255 13.068L25.3396 0.000173264L35.7139 17.4894C35.8779 17.4583 36.0472 17.4421 36.2204 17.4421C36.986 17.4421 37.6767 17.7594 38.1655 18.2684L47.6255 13.068Z" fill="#576270"/>
<path d="M22.9545 0L0.668363 13.068L10.1284 18.2684C10.6172 17.7594 11.3079 17.4421 12.0735 17.4421C12.2467 17.4421 12.416 17.4583 12.5801 17.4894L22.9545 0Z" fill="#576270"/>
<path d="M33.6232 32.7026C33.5672 32.9162 33.5374 33.1402 33.5374 33.3711C33.5374 34.1884 33.9107 34.9195 34.4977 35.4065L25.0412 51.3485L25.0412 27.9849L33.6232 32.7026Z" fill="#576270"/>
<path d="M13.7962 35.4065L23.2526 51.3483L23.2526 27.9849L14.6707 32.7026C14.7267 32.9162 14.7565 33.1402 14.7565 33.3711C14.7565 34.1884 14.3833 34.9195 13.7962 35.4065Z" fill="#576270"/>
<path d="M33.6232 20.7654L25.0412 25.4832L25.0412 2.11958L34.4977 18.0615C33.9107 18.5485 33.5374 19.2796 33.5374 20.0969C33.5374 20.3278 33.5672 20.5519 33.6232 20.7654Z" fill="#576270"/>
<path d="M13.7962 18.0615L23.2526 2.11975L23.2526 25.4831L14.6707 20.7654C14.7267 20.5519 14.7565 20.3278 14.7565 20.0969C14.7565 19.2796 14.3833 18.5485 13.7962 18.0615Z" fill="#576270"/>
<path d="M35.5497 30.7999C35.0554 30.9258 34.6162 31.1875 34.2753 31.5425L25.5281 26.734L34.2753 21.9255C34.6162 22.2805 35.0554 22.5422 35.5497 22.6681V30.7999Z" fill="#576270"/>
<path d="M38.8176 34.0396C38.8736 33.826 38.9034 33.602 38.9034 33.3711C38.9034 32.134 38.0483 31.0946 36.8912 30.7999V22.6681C36.9887 22.6433 37.084 22.6132 37.1769 22.5781L46.4715 38.2471L38.8176 34.0396Z" fill="#576270"/>
<path d="M22.7658 26.734L14.0187 31.5425C13.6777 31.1875 13.2386 30.9258 12.7443 30.7999V22.6681C13.2386 22.5422 13.6777 22.2805 14.0187 21.9255L22.7658 26.734Z" fill="#576270"/>
<path d="M11.4028 22.6681V30.7999C10.2456 31.0946 9.39055 32.134 9.39055 33.3711C9.39055 33.602 9.42034 33.826 9.47633 34.0396L1.82249 38.2471L11.117 22.5781C11.2099 22.6132 11.3053 22.6433 11.4028 22.6681Z" fill="#576270"/>
<path d="M71.2294 13.0141H67.1872L59.4878 38.2297H62.8371L64.4924 32.3781H73.7702L75.4256 38.2297H78.9673L71.2294 13.0141ZM69.1506 16.0169L72.9618 29.4524H65.3009L69.1506 16.0169Z" fill="#576270"/>
<path d="M85.4435 11.9362H82.1713V38.2297H85.4435V11.9362Z" fill="#576270"/>
<path d="M94.0903 11.9362H90.8181V38.2297H94.0903V11.9362Z" fill="#576270"/>
<path d="M102.737 19.4431H99.4649V38.2297H102.737V19.4431ZM101.082 11.8592C99.7343 11.8592 98.9644 12.4752 98.9644 13.6301V14.7465C98.9644 15.8629 99.7343 16.4789 101.082 16.4789C102.468 16.4789 103.238 15.8629 103.238 14.7465V13.6301C103.238 12.4752 102.468 11.8592 101.082 11.8592Z" fill="#576270"/>
<path d="M113.848 18.9812C112.5 18.9812 110.344 19.2891 108.651 19.5586V22.3689C109.998 22.1379 112.346 21.7915 113.848 21.7915C115.927 21.7915 116.927 22.6384 116.927 24.9097V27.027C115.773 26.7961 114.079 26.5266 112.962 26.5266C109.344 26.5266 107.149 28.8749 107.149 31.8777V32.9556C107.149 36.5358 109.113 38.6916 112.038 38.6916C113.848 38.6916 115.58 37.5367 117.081 35.2269V38.2297H120.2V25.1792C120.2 20.8675 118.236 18.9812 113.848 18.9812ZM113.771 29.0674C114.579 29.0674 115.888 29.1444 116.927 29.3369V32.3011C115.696 34.534 114.117 35.7659 112.77 35.7659C111.461 35.7659 110.46 34.688 110.46 32.7246V32.3011C110.46 30.2608 111.576 29.0674 113.771 29.0674Z" fill="#576270"/>
<path d="M133.605 18.9812C131.603 18.9812 129.832 20.1746 128.485 22.2534V19.4431H125.405V38.2297H128.677V25.1792C129.794 23.2158 131.449 22.0224 132.951 22.0224C134.452 22.0224 135.453 23.1003 135.453 25.8721V38.2297H138.725V25.4102C138.725 21.291 136.877 18.9812 133.605 18.9812Z" fill="#576270"/>
<path d="M150.71 18.9812C145.898 18.9812 143.742 21.522 143.742 25.9876V31.6852C143.742 36.3048 146.014 38.6916 150.672 38.6916C151.673 38.6916 152.828 38.5762 154.637 38.1912L154.56 35.3039C153.213 35.6119 152.25 35.8044 150.71 35.8044C148.478 35.8044 147.015 34.5725 147.015 31.9162V25.7181C147.015 23.2543 148.285 21.8684 150.71 21.8684C151.981 21.8684 153.174 22.0609 154.56 22.3689L154.637 19.4816C152.943 19.0967 151.904 18.9812 150.71 18.9812Z" fill="#576270"/>
<path d="M165.287 18.9812C160.86 18.9812 158.743 21.445 158.743 25.8721V31.9162C158.743 36.4588 160.706 38.6916 165.903 38.6916C167.366 38.6916 169.329 38.3452 171.023 38.0372L170.946 35.1884C169.637 35.4579 167.559 35.8044 165.942 35.8044C163.208 35.8044 162.015 34.7264 162.015 32.1087V29.8373H171.909V25.8721C171.909 21.4065 169.599 18.9812 165.287 18.9812ZM165.287 21.7145C167.289 21.7145 168.636 22.9464 168.636 25.4872V27.2195H162.015V25.3717C162.015 22.9849 163.324 21.7145 165.287 21.7145Z" fill="#576270"/>
<path d="M183.314 12.5522C180.581 12.5522 178.309 12.6292 176.539 12.7062V38.4607C180.273 38.6531 181.235 38.6916 183.584 38.6916C189.859 38.6916 192.63 35.7659 192.63 31.7237V30.8767C192.63 27.874 190.898 25.7566 188.049 25.1407C190.513 24.0628 191.591 22.0994 191.591 19.5586V18.7117C191.591 15.0545 188.858 12.5522 183.314 12.5522ZM183.815 26.7576C187.703 26.7576 189.358 28.182 189.358 30.7228V31.5312C189.358 34.1105 187.664 35.8429 183.584 35.8429C182.275 35.8429 181.89 35.8044 179.811 35.6119V26.7576H183.815ZM182.814 15.3624C186.779 15.3624 188.319 16.7483 188.319 19.2121V19.8666C188.319 22.5229 186.702 24.1013 183.584 24.1013H179.811V15.4779C180.889 15.4009 181.89 15.3624 182.814 15.3624Z" fill="#576270"/>
<path d="M199.957 11.9362H196.685V38.2297H199.957V11.9362Z" fill="#576270"/>
<path d="M211.722 18.9812C207.026 18.9812 204.947 21.6375 204.947 25.9876V31.6852C204.947 36.0353 207.026 38.6916 211.722 38.6916C216.419 38.6916 218.498 36.0353 218.498 31.6852V25.9876C218.498 21.6375 216.419 18.9812 211.722 18.9812ZM211.722 21.7145C213.917 21.7145 215.225 23.0619 215.225 25.6796V31.9547C215.225 34.5725 213.917 35.9584 211.722 35.9584C209.528 35.9584 208.219 34.5725 208.219 31.9547V25.7181C208.219 23.1003 209.528 21.7145 211.722 21.7145Z" fill="#576270"/>
<path d="M230.073 18.9812C225.261 18.9812 223.105 21.522 223.105 25.9876V31.6852C223.105 36.3048 225.376 38.6916 230.034 38.6916C231.035 38.6916 232.19 38.5762 234 38.1912L233.923 35.3039C232.575 35.6119 231.613 35.8044 230.073 35.8044C227.84 35.8044 226.377 34.5725 226.377 31.9162V25.7181C226.377 23.2543 227.648 21.8684 230.073 21.8684C231.343 21.8684 232.537 22.0609 233.923 22.3689L234 19.4816C232.306 19.0967 231.266 18.9812 230.073 18.9812Z" fill="#576270"/>
<path d="M241.762 11.9362H238.49V38.2297H241.762V28.1435L248.114 38.2297H252.041L245.189 27.6815L251.579 19.4431H247.922L241.762 27.6815V11.9362Z" fill="#576270"/>
</svg>
