<svg width="103" height="103" viewBox="0 0 103 103" fill="none" xmlns="http://www.w3.org/2000/svg">
<g clip-path="url(#clip0_1497_19941)">
<path d="M17.123 54.4701L51.3121 19.9746L85.5012 54.4701L68.4067 71.7187L51.3121 54.471L34.2176 71.7187L17.123 54.4701V54.4701Z" stroke="#576270" stroke-width="1.35804" stroke-linejoin="round"/>
<path d="M51.3142 54.47L34.2197 71.7203L30.8008 63.1774L51.3142 42.4805V54.47V54.47Z" stroke="#576270" stroke-width="1.35804" stroke-linejoin="round"/>
<path d="M17.1212 54.4666L34.2175 71.7143L30.7986 63.1783L10.2852 42.4805L17.1212 54.4666V54.4666ZM51.312 54.47L68.4066 71.7203L71.8255 63.1774L51.312 42.4805V54.47V54.47Z" stroke="#576270" stroke-width="1.35804" stroke-linejoin="round"/>
<path d="M85.5045 54.4666L68.4082 71.7143L71.8271 63.1783L92.3405 42.4805L85.5045 54.4666V54.4666Z" stroke="#576270" stroke-width="1.35804" stroke-linejoin="round"/>
<path d="M10.2852 42.4787L51.312 1.08398L92.3389 42.4787L71.8255 63.1766L51.312 42.4787L30.7986 63.1766L10.2852 42.4787V42.4787Z" stroke="#576270" stroke-width="1.35804" stroke-linejoin="round"/>
<path d="M27.046 102.616H29.1969V94.0083H35.6539V102.616H37.8048V91.8556H27.0469V102.616H27.046ZM48.5652 102.616H59.324V96.1591H57.1731V100.464H50.7161V94.0083H59.3248V91.8556H48.5661V102.616H48.5652ZM72.2362 91.8556H70.0853V102.616H80.8458V100.464H72.2362V91.8556ZM102.365 91.8556H91.6045V102.616H102.365V100.464H95.9132L102.365 94.0109V91.8556ZM93.7883 99.5495V94.0083H99.3235L93.7883 99.5495ZM9.58277 91.8435L9.58104 91.8418L9.38196 92.0435L0.330078 101.095L1.85171 102.617L9.58536 94.8833L17.3329 102.602L18.8519 101.077L9.59575 91.8556L9.58277 91.8435Z" fill="#576270"/>
</g>
<defs>
<clipPath id="clip0_1497_19941">
<rect width="103" height="103" fill="white"/>
</clipPath>
</defs>
</svg>
