<svg width="135" height="114" viewBox="0 0 135 114" fill="none" xmlns="http://www.w3.org/2000/svg">
<path d="M81.2109 39.8605L87.4646 29.2494L104.321 55.5032L104.328 60.5413L104.273 25.8711C104.234 25.0236 103.784 24.2483 103.066 23.7911L72.7186 6.33508C72.0088 5.98625 71.1085 5.98995 70.4 6.34591C70.3043 6.39401 70.2142 6.44607 70.1283 6.50288L70.0226 6.56948L40.566 23.6394L40.4516 23.6912C40.3046 23.7589 40.1561 23.8447 40.0166 23.9446C39.4582 24.3453 39.0872 24.9375 38.9672 25.6018C38.9492 25.7025 38.936 25.805 38.9297 25.9084L38.9759 54.1613L54.6765 29.8263C56.6531 26.5994 60.9601 25.5601 64.9581 25.6166L69.6506 25.7406L42.0025 70.0801L45.2616 71.9566L73.2411 25.7855L85.6079 25.7406L57.7007 73.0768L69.3303 79.7658L70.7197 80.5649C71.3075 80.8038 72.0004 80.8157 72.5931 80.6019L103.367 62.7683L97.483 66.1775L81.2109 39.8605ZM83.5969 74.2248L71.8508 55.7894L79.021 43.6223L94.4472 67.9367L83.5969 74.2248Z" fill="white"/>
<path d="M71.8496 55.7892L83.5957 74.2246L94.4463 67.9365L79.0201 43.6221L71.8496 55.7892Z" fill="#576270"/>
<path d="M104.328 60.5409L104.321 55.5028L87.4647 29.249L81.2109 39.8602L97.4831 66.1771L103.367 62.7679C103.944 62.2993 104.293 61.6115 104.33 60.8692L104.328 60.5409Z" fill="#576270"/>
<path d="M33.6936 65.2926L42.002 70.0799L69.65 25.7404L64.9575 25.6164C60.9595 25.5599 56.6529 26.5992 54.6759 29.8261L38.9754 54.1611L33.6934 62.2768V65.2926H33.6936Z" fill="#576270"/>
<path d="M85.6058 25.7402L73.2392 25.7852L45.2598 71.9563L55.0393 77.5872L57.6988 73.0765L85.6058 25.7402Z" fill="#576270"/>
<path d="M109.539 25.6767C109.436 23.0904 108.036 20.7226 105.842 19.3443L75.0975 1.66388C72.9276 0.571165 70.2169 0.569843 68.0436 1.66309C67.7867 1.79258 38.1448 18.9838 38.1448 18.9838C37.7347 19.1804 37.3396 19.4148 36.9678 19.6807C35.0096 21.0842 33.816 23.2648 33.6934 25.6609V62.2771L38.9754 54.1614L38.9292 25.9085C38.9355 25.8052 38.9485 25.7037 38.9667 25.6033C39.0859 24.9384 39.4572 24.3454 40.0161 23.9448C40.1556 23.8449 70.3035 6.39416 70.3995 6.34606C71.1082 5.9901 72.0085 5.9864 72.7181 6.33522L103.065 23.7912C103.783 24.2484 104.233 25.0238 104.273 25.8712V60.8697C104.236 61.612 103.943 62.2996 103.366 62.7684L97.4822 66.1776L94.4467 67.9368L83.5961 74.2249L72.5923 80.6021C71.9996 80.8161 71.3067 80.8042 70.719 80.5651L57.6999 73.077L55.0404 77.5874L66.7402 84.3236C67.1271 84.5435 67.472 84.7385 67.7547 84.8976C68.1929 85.1434 68.4912 85.3075 68.5967 85.3585C69.4283 85.7623 70.6246 85.9975 71.7028 85.9975C72.6914 85.9975 73.6552 85.8159 74.5674 85.4586L106.528 66.949C108.363 65.5278 109.442 63.3844 109.539 61.0623V25.6767Z" fill="#576270"/>
<path d="M10.6135 100.233C10.9515 100.233 11.2361 100.302 11.4674 100.44C11.6989 100.578 11.9256 100.847 12.1484 101.248L16.5665 109.27C16.6109 109.359 16.6223 109.432 16.6001 109.49C16.5779 109.548 16.5134 109.577 16.4067 109.577H14.7114C14.5603 109.577 14.458 109.519 14.4044 109.404L13.4567 107.682H7.18317L6.26195 109.404C6.19959 109.519 6.09732 109.577 5.95515 109.577H4.22027C4.10426 109.577 4.03555 109.548 4.01336 109.49C3.99063 109.432 4.00199 109.359 4.04639 109.27L8.42466 101.248C8.64717 100.847 8.86519 100.578 9.07897 100.44C9.2925 100.302 9.54117 100.233 9.8263 100.233H10.6135ZM8.02378 106.133H12.6156L10.4933 102.222C10.4576 102.16 10.4085 102.129 10.3464 102.129H10.2663C10.2039 102.129 10.1548 102.16 10.1194 102.222L8.02378 106.133Z" fill="#576270"/>
<path d="M30.5843 100.233C31.6075 100.233 32.3417 100.465 32.7869 100.928C33.2317 101.39 33.4542 102.076 33.4542 102.983V103.744C33.4542 104.509 33.2983 105.115 32.987 105.559C32.6752 106.004 32.1678 106.289 31.4651 106.413L33.7478 109.243C33.7922 109.288 33.8054 109.355 33.7877 109.443C33.7697 109.532 33.6984 109.577 33.5742 109.577H31.852C31.7362 109.577 31.6559 109.564 31.6118 109.537C31.5671 109.51 31.5227 109.466 31.4783 109.404L29.3692 106.627H25.0578V109.283C25.0578 109.479 24.9598 109.577 24.7642 109.577H23.3227C23.1182 109.577 23.0156 109.479 23.0156 109.283V100.634C23.0156 100.367 23.1493 100.233 23.4165 100.233H30.5843ZM25.0581 104.999H30.1708C30.6245 104.999 30.945 104.901 31.1316 104.705C31.3187 104.509 31.4123 104.211 31.4123 103.811V103.25C31.4123 102.85 31.3187 102.551 31.1316 102.356C30.945 102.16 30.6245 102.062 30.1708 102.062H25.2317C25.116 102.062 25.0584 102.115 25.0584 102.222V104.999H25.0581Z" fill="#576270"/>
<path d="M48.3803 100.233C49.2973 100.233 49.949 100.416 50.3358 100.781C50.7232 101.145 50.9164 101.697 50.9164 102.436V103.077C50.9164 103.824 50.6318 104.389 50.0626 104.772C50.6762 105.128 50.9833 105.702 50.9833 106.494V107.268C50.9833 107.624 50.9431 107.945 50.863 108.229C50.783 108.514 50.6516 108.756 50.4696 108.957C50.2872 109.157 50.0446 109.31 49.742 109.417C49.4392 109.524 49.0655 109.577 48.6205 109.577H40.6919C40.4247 109.577 40.291 109.444 40.291 109.177V100.634C40.291 100.367 40.4247 100.233 40.6919 100.233H48.3803ZM42.3335 104.118H47.8066C48.2516 104.118 48.5539 104.051 48.7143 103.917C48.8742 103.784 48.9545 103.588 48.9545 103.33V102.876C48.9545 102.6 48.8766 102.398 48.7209 102.268C48.565 102.14 48.314 102.075 47.9667 102.075H42.5071C42.3914 102.075 42.3335 102.133 42.3335 102.249V104.118ZM42.3335 105.573V107.561C42.3335 107.677 42.3914 107.735 42.5071 107.735H47.98C48.3362 107.735 48.5896 107.67 48.7408 107.542C48.8922 107.413 48.9675 107.206 48.9675 106.921V106.413C48.9675 106.138 48.885 105.928 48.7207 105.786C48.5558 105.644 48.2513 105.572 47.8063 105.572H42.3335V105.573Z" fill="#576270"/>
<path d="M59.4556 100.233C59.6515 100.233 59.7495 100.331 59.7495 100.527V109.283C59.7495 109.479 59.6515 109.577 59.4556 109.577H58.0138C57.8093 109.577 57.707 109.479 57.707 109.283V100.527C57.707 100.331 57.8093 100.233 58.0138 100.233H59.4556Z" fill="#576270"/>
<path d="M76.9367 100.233C77.1412 100.233 77.2438 100.331 77.2438 100.527V101.835C77.2438 102.04 77.1412 102.142 76.9367 102.142H72.7455V109.283C72.7455 109.479 72.6475 109.577 72.4517 109.577H70.9969C70.8011 109.577 70.7036 109.479 70.7036 109.283V102.142H66.5121C66.3073 102.142 66.2051 102.04 66.2051 101.835V100.527C66.2051 100.331 66.3073 100.234 66.5121 100.234H76.9367V100.233Z" fill="#576270"/>
<path d="M91.2537 100.233C92.2772 100.233 93.0116 100.465 93.4566 100.928C93.9013 101.39 94.1239 102.076 94.1239 102.983V103.744C94.1239 104.509 93.9679 105.115 93.6566 105.559C93.3448 106.004 92.8374 106.289 92.1348 106.413L94.4174 109.243C94.4618 109.288 94.4751 109.355 94.4571 109.443C94.4394 109.532 94.3683 109.577 94.2438 109.577H92.5216C92.4059 109.577 92.3258 109.564 92.2814 109.537C92.2368 109.51 92.1924 109.466 92.148 109.404L90.0389 106.627H85.7278V109.283C85.7278 109.479 85.6297 109.577 85.4342 109.577H83.9926C83.7881 109.577 83.6855 109.479 83.6855 109.283V100.634C83.6855 100.367 83.8193 100.233 84.0864 100.233H91.2537ZM85.7278 104.999H90.8404C91.2941 104.999 91.6147 104.901 91.8013 104.705C91.9884 104.509 92.0819 104.211 92.0819 103.811V103.25C92.0819 102.85 91.9884 102.551 91.8013 102.356C91.6147 102.16 91.2941 102.062 90.8404 102.062H85.9014C85.7856 102.062 85.728 102.115 85.728 102.222V104.999H85.7278Z" fill="#576270"/>
<path d="M102.516 100.233C102.712 100.233 102.81 100.331 102.81 100.527V105.853C102.81 106.209 102.839 106.505 102.897 106.74C102.955 106.976 103.051 107.163 103.184 107.301C103.317 107.439 103.498 107.537 103.725 107.594C103.951 107.653 104.238 107.681 104.586 107.681H108.283C108.63 107.681 108.917 107.653 109.144 107.594C109.371 107.537 109.551 107.439 109.685 107.301C109.818 107.163 109.912 106.976 109.965 106.74C110.018 106.505 110.045 106.209 110.045 105.853V100.527C110.045 100.331 110.143 100.233 110.339 100.233H111.794C111.989 100.233 112.087 100.331 112.087 100.527V106.053C112.087 106.694 112.021 107.239 111.887 107.688C111.754 108.137 111.538 108.502 111.24 108.783C110.941 109.063 110.554 109.266 110.078 109.39C109.602 109.515 109.026 109.577 108.35 109.577H104.506C103.829 109.577 103.255 109.515 102.783 109.39C102.312 109.266 101.927 109.063 101.629 108.783C101.331 108.502 101.112 108.138 100.974 107.688C100.837 107.239 100.768 106.694 100.768 106.053V100.527C100.768 100.331 100.87 100.233 101.075 100.233H102.516Z" fill="#576270"/>
<path d="M121.595 100.233C121.791 100.233 121.96 100.247 122.102 100.273C122.245 100.3 122.369 100.351 122.476 100.427C122.583 100.502 122.678 100.605 122.763 100.734C122.847 100.863 122.934 101.034 123.024 101.248L125.8 107.655C125.835 107.735 125.898 107.775 125.987 107.775H126.147C126.236 107.775 126.298 107.735 126.334 107.655L129.11 101.248C129.199 101.034 129.286 100.863 129.37 100.734C129.455 100.605 129.551 100.502 129.657 100.427C129.764 100.351 129.886 100.3 130.024 100.273C130.162 100.246 130.329 100.233 130.525 100.233H131.953C132.416 100.233 132.727 100.338 132.887 100.547C133.048 100.756 133.128 101.114 133.128 101.622V109.283C133.128 109.479 133.026 109.577 132.821 109.577H131.46C131.264 109.577 131.166 109.479 131.166 109.283V102.316C131.166 102.227 131.13 102.182 131.059 102.182H130.939C130.85 102.182 130.792 102.218 130.765 102.289L128.069 108.269C127.963 108.509 127.853 108.712 127.742 108.876C127.631 109.041 127.511 109.177 127.382 109.283C127.253 109.39 127.106 109.466 126.941 109.51C126.777 109.555 126.583 109.577 126.361 109.577H125.72C125.497 109.577 125.304 109.555 125.14 109.51C124.975 109.466 124.828 109.39 124.699 109.283C124.57 109.177 124.45 109.041 124.339 108.876C124.228 108.712 124.119 108.509 124.012 108.269L121.315 102.289C121.289 102.218 121.231 102.182 121.142 102.182H121.022C120.95 102.182 120.915 102.227 120.915 102.316V109.283C120.915 109.479 120.817 109.577 120.622 109.577H119.26C119.056 109.577 118.953 109.479 118.953 109.283V101.622C118.953 101.114 119.033 100.756 119.193 100.547C119.354 100.338 119.669 100.233 120.141 100.233H121.595Z" fill="#576270"/>
</svg>
