<svg width="260" height="67" viewBox="0 0 260 67" fill="none" xmlns="http://www.w3.org/2000/svg">
<path d="M41.8799 48.7021L29.8825 53.8984V53.4009C27.4941 54.009 25.0502 54.3407 22.5507 54.4512C11.2754 54.3407 2.33283 48.481 2.22175 41.5156V38.9174C5.88763 44.2796 13.4971 47.8729 22.5507 47.707C25.5501 47.8176 28.4939 47.4306 31.3822 46.6567L32.4375 44.0585C29.216 45.0536 25.8833 45.6064 22.5507 45.6064C11.2754 45.6617 2.33283 39.8019 2.22175 32.6707V30.5701C5.88763 35.5453 13.4416 39.0833 22.5507 38.9174C26.4943 39.1386 30.4379 38.4199 33.9927 36.8168L34.4926 34.2186C30.7712 36.0429 26.661 36.9826 22.4952 36.8168C11.2198 36.9826 2.27729 31.1229 2.1662 23.8812V21.7805C5.83209 26.8663 13.4416 30.4042 22.4952 30.5701C27.383 30.4042 32.2153 29.1881 36.6033 26.9769L37.1032 23.8812C33.4928 26.5346 28.1606 28.3036 22.5507 28.5247C11.2198 28.2483 2.27729 22.3886 2.1662 15.0363C2.27729 8.07094 11.2198 2.15593 22.4952 2.10065C29.216 2.21121 35.4369 4.58827 39.1583 8.34734L39.5471 8.90015H42.1576L41.7688 8.29207C38.0474 3.31683 30.6601 0 22.4396 0C9.99786 0 0 6.85477 0 15.0363V42.0131C0.444349 50.0288 10.1645 56.5519 22.4396 56.5519C30.6601 56.4966 37.9363 53.2903 41.8799 48.7021Z" fill="#576270"/>
<path d="M36.9925 67L41.2139 49.1997L29.1053 54.4514L36.4927 23.5496H22.2735L25.9394 8.34745H71.2074L67.5416 23.5496H52.8225L49.6565 31.9522L65.9863 25.1527L36.9925 67ZM44.3799 45.4959L42.2692 55.9439L59.6544 29.741L45.4352 36.043L51.7672 21.3936H65.9863L68.5969 10.3928H27.5501L24.9396 21.3936H39.1587L32.3269 50.6923L44.3799 45.4959Z" fill="#576270"/>
<path d="M99.3122 18.5191C99.3122 19.293 99.09 20.0117 98.8123 20.675C98.479 21.3384 98.0347 21.9465 97.4792 22.444C96.2017 23.4391 94.6465 23.9919 93.0357 23.8813C92.147 23.9366 91.2583 23.7708 90.4252 23.4391C89.592 23.1074 88.87 22.5546 88.259 21.8912C87.0926 20.5645 86.5371 18.685 86.5371 16.3079V15.3681C86.4816 13.9861 86.7593 12.6594 87.3147 11.3879C87.8146 10.2823 88.5922 9.39783 89.592 8.73447C90.814 8.0711 92.2026 7.73943 93.5912 7.84999C94.9798 7.96055 96.3128 8.45807 97.4237 9.28727C98.5901 10.3376 99.2566 11.8302 99.3677 13.378H96.1462C96.1462 12.5488 95.8685 11.7749 95.313 11.1668C94.702 10.6693 93.8689 10.4482 93.0913 10.5034C92.6469 10.4482 92.147 10.5587 91.7027 10.7799C91.2583 11.001 90.9251 11.2774 90.6474 11.6643C90.0919 12.4383 89.8142 13.6544 89.8142 15.2576V16.4185C89.8142 18.1321 90.0919 19.3483 90.5918 20.1222C90.8695 20.5092 91.2028 20.8409 91.6471 21.0067C92.0915 21.2279 92.5358 21.2831 93.0357 21.2831C93.8689 21.3384 94.6465 21.1173 95.2575 20.6198C95.8129 20.067 96.0906 19.293 96.0906 18.5191H99.3122Z" fill="#576270"/>
<path d="M114.365 16.2523C114.42 17.6343 114.143 19.0163 113.532 20.2877C113.032 21.3933 112.199 22.3331 111.199 22.9965C110.144 23.6046 108.922 23.9362 107.7 23.9362C106.478 23.9362 105.256 23.6046 104.2 22.9965C103.145 22.3331 102.312 21.4486 101.812 20.343C101.257 19.0716 100.923 17.7448 100.979 16.3628V15.5889C100.923 14.2069 101.257 12.8249 101.812 11.4981C102.312 10.3925 103.145 9.45277 104.2 8.7894C105.256 8.18132 106.478 7.84964 107.7 7.84964C108.922 7.84964 110.144 8.18132 111.199 8.7894C112.254 9.45277 113.032 10.3925 113.587 11.4981C114.143 12.7696 114.476 14.1516 114.42 15.5336V16.2523H114.365ZM111.088 15.5336C111.088 13.8752 110.81 12.659 110.199 11.7745C109.921 11.3876 109.533 11.0559 109.088 10.8348C108.644 10.6137 108.144 10.5031 107.7 10.5031C107.2 10.5031 106.7 10.6137 106.311 10.8348C105.867 11.0559 105.478 11.3876 105.2 11.7745C104.589 12.6038 104.312 13.8752 104.312 15.4783V16.2523C104.256 17.5237 104.534 18.8504 105.2 19.9561C105.478 20.343 105.867 20.6747 106.311 20.8958C106.755 21.1169 107.255 21.2275 107.755 21.2275C108.255 21.2275 108.755 21.1169 109.199 20.8958C109.644 20.6747 110.033 20.343 110.31 19.9561C110.866 19.1268 111.199 17.8554 111.199 16.2523V15.5336H111.088Z" fill="#576270"/>
<path d="M120.142 23.6601H116.92V8.01571H120.142V23.6601Z" fill="#576270"/>
<path d="M132.694 23.6601L126.418 13.3779V23.6601H123.197V8.01571H126.418L132.75 18.2979V8.01571H135.972V23.6601H132.694Z" fill="#576270"/>
<path d="M145.414 10.6691V23.7153H142.248V10.6691H137.526V8.07094H150.301V10.6691H145.414Z" fill="#576270"/>
<path d="M161.577 16.9158H155.356V21.1171H162.632V23.7153H152.079V8.07094H162.576V10.6691H155.3V14.3729H161.521V16.9158H161.577Z" fill="#576270"/>
<path d="M167.797 21.0619H174.684V23.6601H164.575V8.01571H167.797V21.0619Z" fill="#576270"/>
<path d="M185.961 16.9158H179.74V21.1171H187.016V23.7153H176.463V8.07094H186.96V10.6691H179.684V14.3729H185.905V16.9158H185.961Z" fill="#576270"/>
<path d="M201.401 21.7252C200.734 22.4991 199.901 23.052 198.957 23.3284C197.846 23.7153 196.624 23.9364 195.402 23.8812C194.125 23.9364 192.903 23.6048 191.847 22.9967C190.792 22.3886 189.959 21.5041 189.459 20.3985C188.848 19.1823 188.57 17.8003 188.626 16.4183V15.368C188.57 13.986 188.848 12.604 189.403 11.3325C189.903 10.2269 190.681 9.3424 191.681 8.73432C192.736 8.12623 193.958 7.79455 195.18 7.84983C197.068 7.84983 198.513 8.29207 199.568 9.17656C200.679 10.1716 201.345 11.5536 201.456 13.0462H198.29C198.235 12.2723 197.902 11.6089 197.346 11.0561C196.791 10.6139 196.069 10.3927 195.291 10.448C194.791 10.448 194.291 10.5033 193.847 10.7244C193.403 10.9455 193.014 11.2772 192.736 11.6642C192.181 12.4934 191.847 13.7096 191.847 15.3127V16.3077C191.847 17.9662 192.181 19.1823 192.792 20.0115C193.125 20.4538 193.514 20.7855 194.014 21.0066C194.513 21.2277 195.013 21.3383 195.569 21.283C196.791 21.283 197.624 21.0066 198.179 20.5091V17.8003H195.236V15.4233H201.401V21.7252Z" fill="#576270"/>
<path d="M209.788 17.9661H207.233V23.7153H204.011V8.07094H209.843C211.676 8.07094 213.121 8.4579 214.12 9.2871C214.62 9.72935 215.009 10.2269 215.287 10.835C215.564 11.443 215.676 12.1064 215.62 12.7698C215.676 13.7095 215.398 14.6493 214.898 15.4232C214.398 16.1972 213.62 16.75 212.787 17.1369L216.175 23.5495V23.7153H212.676L209.788 17.9661ZM207.233 15.3127H209.843C210.51 15.368 211.232 15.1468 211.732 14.7046C211.954 14.4835 212.121 14.2071 212.232 13.9307C212.343 13.6543 212.398 13.3226 212.398 12.9909C212.398 12.6592 212.343 12.3828 212.287 12.0511C212.176 11.7747 212.01 11.4983 211.787 11.2219C211.51 11.0008 211.232 10.835 210.899 10.7244C210.566 10.6138 210.232 10.5586 209.843 10.6138H207.233V15.3127Z" fill="#576270"/>
<path d="M226.951 20.4538H221.286L220.231 23.6601H216.787L222.619 8.01571H225.618L231.506 23.6601H228.062L226.951 20.4538ZM222.175 17.8556H226.118L224.119 11.9959L222.175 17.8556Z" fill="#576270"/>
<path d="M236.228 18.1873V23.7153H233.006V8.07094H239.116C240.172 8.07094 241.227 8.29206 242.227 8.7343C243.06 9.12126 243.782 9.78463 244.282 10.5586C244.782 11.3878 245.004 12.3275 245.004 13.2673C245.059 13.9307 244.893 14.6493 244.615 15.2574C244.337 15.8655 243.949 16.4183 243.393 16.8605C242.338 17.745 240.894 18.1873 239.005 18.1873H236.228ZM236.228 15.5338H239.116C239.838 15.5891 240.505 15.368 241.06 14.9257C241.282 14.7046 241.449 14.4282 241.616 14.1518C241.727 13.8754 241.782 13.5437 241.782 13.212C241.782 12.8803 241.727 12.5487 241.616 12.217C241.505 11.8853 241.338 11.6089 241.116 11.3325C240.894 11.1114 240.56 10.8902 240.227 10.7797C239.894 10.6691 239.561 10.6138 239.227 10.6138H236.283V15.5338H236.228Z" fill="#576270"/>
<path d="M260 23.6601H256.778V16.9711H250.447V23.6601H247.225V8.01571H250.447V14.373H256.778V8.01571H260V23.6601Z" fill="#576270"/>
<path d="M96.6466 40.4101H92.6474V51.2451H89.9258V40.4101H85.9822V38.2542H96.6466V40.4101Z" fill="#576270"/>
<path d="M100.535 42.6214C100.868 42.2345 101.257 41.9028 101.701 41.6817C102.146 41.4605 102.645 41.35 103.145 41.35C105.256 41.35 106.311 42.5662 106.367 44.9985V51.1899H103.756V45.0538C103.812 44.6115 103.645 44.1693 103.423 43.8376C103.256 43.6718 103.09 43.5612 102.868 43.5059C102.645 43.4506 102.423 43.3954 102.201 43.4506C101.868 43.4506 101.535 43.5059 101.257 43.6718C100.979 43.8376 100.701 44.0587 100.535 44.3351V51.1899H97.9243V37.4251H100.535V42.6214Z" fill="#576270"/>
<path d="M112.753 51.4662C112.087 51.4662 111.476 51.4109 110.865 51.1898C110.254 50.9686 109.698 50.637 109.254 50.1947C108.81 49.7525 108.421 49.1997 108.199 48.5916C107.977 47.9835 107.865 47.3754 107.865 46.7121V46.4356C107.865 45.5512 108.032 44.6667 108.421 43.8375C108.754 43.1188 109.31 42.5107 110.032 42.0685C110.754 41.6262 111.587 41.4051 112.42 41.4604C113.031 41.4051 113.586 41.5157 114.142 41.7368C114.697 41.9579 115.197 42.2896 115.586 42.7319C116.364 43.5611 116.752 44.7772 116.752 46.2698V47.3201H110.587C110.643 47.9282 110.92 48.4257 111.365 48.868C111.809 49.255 112.364 49.4761 112.975 49.4208C113.42 49.4208 113.864 49.3655 114.309 49.1444C114.697 48.9785 115.086 48.6469 115.364 48.3152L116.641 49.7525C116.253 50.3053 115.697 50.7475 115.086 51.0239C114.309 51.3003 113.531 51.4662 112.753 51.4662ZM112.476 43.5058C112.253 43.5058 112.031 43.5611 111.809 43.6163C111.587 43.7269 111.42 43.8375 111.254 44.0033C110.92 44.4456 110.698 44.9431 110.643 45.4959H114.253V45.2748C114.253 44.7772 114.086 44.335 113.809 43.948C113.642 43.7822 113.42 43.6716 113.198 43.5611C112.92 43.5058 112.698 43.5058 112.476 43.5058Z" fill="#576270"/>
<path d="M123.53 51.2451V43.4505H122.086V41.571H123.53V40.7418C123.474 40.2996 123.585 39.802 123.752 39.3598C123.919 38.9175 124.141 38.5306 124.474 38.1989C125.196 37.5908 126.14 37.2591 127.085 37.3144C127.529 37.3144 127.973 37.3697 128.418 37.4803V39.4703C128.14 39.4151 127.918 39.3598 127.64 39.4151C126.64 39.4151 126.196 39.8573 126.196 40.7971V41.571H128.14V43.4505H126.14V51.2451H123.53Z" fill="#576270"/>
<path d="M135.249 50.305C134.916 50.692 134.527 51.0237 134.083 51.1895C133.638 51.4106 133.138 51.4659 132.638 51.4659C132.194 51.5212 131.75 51.4106 131.361 51.3001C130.972 51.1342 130.583 50.9131 130.25 50.5814C129.639 49.8628 129.361 48.923 129.417 47.9833V41.626H132.027V47.8727C132.027 48.8677 132.472 49.3653 133.416 49.3653C133.749 49.4205 134.138 49.31 134.471 49.1994C134.805 49.0336 135.082 48.8125 135.249 48.4808V41.626H137.86V51.3001H135.416L135.249 50.305Z" fill="#576270"/>
<path d="M142.858 39.1938V41.5709H144.524V43.4504H142.858V48.2598C142.858 48.5362 142.914 48.8126 143.08 49.0337C143.191 49.1443 143.302 49.1996 143.469 49.2548C143.58 49.3101 143.747 49.3101 143.913 49.3101C144.191 49.3101 144.413 49.3101 144.691 49.2548V51.1897C144.191 51.3555 143.636 51.4108 143.136 51.4108C141.303 51.4108 140.359 50.471 140.359 48.6468V43.4504H138.914V41.5709H140.359V39.1938H142.858Z" fill="#576270"/>
<path d="M151.801 50.305C151.467 50.692 151.078 51.0237 150.634 51.1895C150.19 51.4106 149.69 51.4659 149.19 51.4659C148.746 51.5212 148.301 51.4106 147.912 51.3001C147.524 51.1342 147.135 50.9131 146.802 50.5814C146.191 49.8628 145.913 48.923 145.968 47.9833V41.626H148.579V47.8727C148.579 48.8677 149.023 49.3653 149.968 49.3653C150.301 49.4205 150.69 49.31 151.023 49.1994C151.356 49.0336 151.634 48.8125 151.801 48.4808V41.626H154.411V51.3001H151.967L151.801 50.305Z" fill="#576270"/>
<path d="M161.744 44.0032C161.41 43.948 161.133 43.948 160.799 43.948C159.8 43.948 159.189 44.2796 158.855 44.943V51.3003H156.245V41.6262H158.689L158.744 42.7871C158.966 42.4001 159.244 42.0684 159.633 41.792C160.022 41.5709 160.466 41.4051 160.91 41.4603C161.188 41.4603 161.466 41.5156 161.744 41.5709V44.0032Z" fill="#576270"/>
<path d="M167.298 51.4662C166.631 51.4662 166.02 51.4109 165.409 51.1898C164.798 50.9686 164.243 50.637 163.799 50.1947C163.354 49.7525 162.966 49.1997 162.743 48.5916C162.521 47.9835 162.41 47.3754 162.41 46.7121V46.4356C162.41 45.5512 162.577 44.6667 162.966 43.8375C163.299 43.1188 163.854 42.5107 164.576 42.0685C165.298 41.6262 166.132 41.4051 166.965 41.4604C167.576 41.4051 168.131 41.5157 168.687 41.7368C169.242 41.9579 169.742 42.2896 170.131 42.7319C170.908 43.5611 171.297 44.7772 171.297 46.2698V47.3201H165.076C165.132 47.9282 165.409 48.4257 165.854 48.868C166.298 49.255 166.854 49.4761 167.465 49.4208C167.909 49.4208 168.353 49.3655 168.798 49.1444C169.186 48.9785 169.575 48.6469 169.853 48.3152L171.13 49.7525C170.742 50.3053 170.186 50.7475 169.575 51.0239C168.798 51.3003 168.076 51.4662 167.298 51.4662ZM166.965 43.5058C166.742 43.5058 166.52 43.5611 166.298 43.6163C166.076 43.7269 165.909 43.8375 165.743 44.0033C165.409 44.4456 165.187 44.9431 165.132 45.4959H168.742V45.2748C168.742 44.7772 168.575 44.335 168.298 43.948C168.131 43.7822 167.909 43.6716 167.687 43.5611C167.465 43.5058 167.242 43.5058 166.965 43.5058Z" fill="#576270"/>
<path d="M176.962 46.3251C176.962 45.4406 177.129 44.5561 177.518 43.7822C177.851 43.0635 178.407 42.4554 179.129 42.0132C179.851 41.571 180.684 41.4051 181.572 41.4051C182.183 41.4051 182.739 41.4604 183.294 41.6815C183.85 41.9026 184.35 42.179 184.794 42.6213C185.683 43.5058 186.127 44.6667 186.183 45.8828V46.5462C186.238 47.8729 185.794 49.1444 184.961 50.1394C184.072 51.0239 182.85 51.4662 181.628 51.4662C180.351 51.4662 179.184 50.9686 178.295 50.1394C177.407 49.1444 176.962 47.8176 177.018 46.4909V46.3251H176.962ZM179.517 46.5462C179.462 47.2648 179.628 48.0388 180.017 48.6469C180.184 48.868 180.406 49.0338 180.684 49.1997C180.962 49.3102 181.239 49.3655 181.517 49.4208C181.795 49.4208 182.072 49.3655 182.35 49.2549C182.628 49.1444 182.85 48.9233 183.017 48.7021C183.405 47.9835 183.628 47.2096 183.572 46.3804C183.628 45.6617 183.405 44.8878 183.017 44.2797C182.85 44.0586 182.628 43.8375 182.35 43.7269C182.072 43.6163 181.795 43.5611 181.517 43.5611C181.239 43.5611 180.962 43.6163 180.684 43.7269C180.406 43.8375 180.184 44.0586 180.017 44.2797C179.684 44.9431 179.462 45.717 179.517 46.5462Z" fill="#576270"/>
<path d="M188.459 51.2451V43.4505H187.015V41.571H188.459V40.7418C188.403 40.2996 188.515 39.802 188.681 39.3598C188.848 38.9175 189.07 38.5306 189.403 38.1989C190.125 37.5908 191.07 37.2591 192.014 37.3144C192.458 37.3144 192.902 37.3697 193.347 37.4803V39.4703C193.069 39.4151 192.847 39.3598 192.569 39.4151C191.569 39.4151 191.125 39.8573 191.125 40.7971V41.571H193.069V43.4505H191.125V51.2451H188.459Z" fill="#576270"/>
<path d="M201.401 41.571L201.456 42.6766C201.789 42.2896 202.234 41.9579 202.678 41.7368C203.178 41.5157 203.678 41.4051 204.233 41.4604C204.789 41.4051 205.289 41.5157 205.733 41.7921C206.177 42.0685 206.566 42.4555 206.788 42.953C207.122 42.4555 207.566 42.0685 208.066 41.8474C208.566 41.571 209.121 41.4604 209.732 41.5157C210.177 41.4604 210.621 41.571 211.01 41.6815C211.399 41.8474 211.787 42.0685 212.065 42.4002C212.621 43.2294 212.898 44.1692 212.843 45.1642V51.3556H210.232V45.1642C210.288 44.722 210.177 44.335 209.899 43.948C209.732 43.7822 209.566 43.6716 209.343 43.6163C209.121 43.5611 208.955 43.5058 208.732 43.5611C208.399 43.5611 208.01 43.6163 207.733 43.8375C207.455 44.0586 207.233 44.335 207.122 44.6667V51.3003H204.511V45.1089C204.567 44.6667 204.456 44.2244 204.178 43.8927C204.011 43.7269 203.845 43.6716 203.678 43.5611C203.456 43.5058 203.289 43.4505 203.067 43.5058C202.734 43.5058 202.4 43.5611 202.123 43.7269C201.845 43.8927 201.623 44.1139 201.456 44.4456V51.3003H198.846V41.6262H201.401V41.571Z" fill="#576270"/>
<path d="M214.454 46.3251C214.454 45.4406 214.621 44.5561 215.009 43.7822C215.343 43.0635 215.898 42.4554 216.62 42.0132C217.342 41.571 218.175 41.4051 219.064 41.4051C219.675 41.4051 220.231 41.4604 220.786 41.6815C221.341 41.9026 221.841 42.179 222.286 42.6213C223.174 43.5058 223.619 44.6667 223.674 45.8828V46.5462C223.73 47.8729 223.285 49.1444 222.452 50.1394C221.564 51.0239 220.342 51.4662 219.12 51.4662C217.898 51.4662 216.676 50.9686 215.787 50.1394C214.898 49.1444 214.454 47.8176 214.51 46.4909V46.3251H214.454ZM217.065 46.5462C217.009 47.2648 217.176 48.0388 217.564 48.6469C217.731 48.868 217.953 49.0338 218.231 49.1997C218.509 49.3102 218.786 49.3655 219.064 49.4208C219.342 49.4761 219.62 49.3655 219.897 49.2549C220.175 49.1444 220.397 48.9233 220.564 48.7021C220.953 47.9835 221.175 47.2096 221.119 46.3804C221.175 45.6617 220.953 44.8878 220.564 44.2797C220.397 44.0586 220.175 43.8375 219.897 43.7269C219.62 43.6163 219.342 43.5611 219.064 43.5611C218.786 43.5611 218.509 43.6163 218.231 43.7269C217.953 43.8375 217.731 44.0586 217.564 44.2797C217.176 44.9431 217.009 45.717 217.065 46.5462Z" fill="#576270"/>
<path d="M227.674 41.5709L227.729 42.6765C228.062 42.2343 228.507 41.9026 228.951 41.6814C229.451 41.4603 229.951 41.3498 230.506 41.3498C230.951 41.2945 231.34 41.405 231.784 41.5156C232.173 41.6814 232.561 41.9026 232.839 42.2343C233.395 43.0082 233.672 43.9479 233.617 44.943V51.1897H231.006V44.9983C231.062 44.556 230.895 44.1138 230.673 43.7821C230.506 43.6715 230.34 43.561 230.118 43.4504C229.895 43.3951 229.673 43.3399 229.507 43.3951C229.173 43.3951 228.84 43.4504 228.562 43.6163C228.285 43.7821 228.007 44.0032 227.896 44.3349V51.1897H225.285V41.5156H227.674V41.5709Z" fill="#576270"/>
<path d="M240.116 51.4662C239.449 51.4662 238.838 51.4109 238.227 51.1898C237.616 50.9686 237.061 50.637 236.617 50.1947C236.172 49.7525 235.784 49.1997 235.561 48.5916C235.339 47.9835 235.228 47.3754 235.228 46.7121V46.4356C235.228 45.5512 235.395 44.6667 235.784 43.8375C236.117 43.1188 236.672 42.5107 237.394 42.0685C238.116 41.6262 238.95 41.4051 239.783 41.4604C240.394 41.4051 240.949 41.5157 241.505 41.7368C242.06 41.9579 242.56 42.2896 242.949 42.7319C243.726 43.5611 244.115 44.7772 244.115 46.2698V47.3201H237.894C237.95 47.9282 238.227 48.4257 238.672 48.868C239.116 49.255 239.672 49.4761 240.283 49.4208C240.727 49.4208 241.171 49.3655 241.616 49.1444C242.004 48.9785 242.393 48.6469 242.671 48.3152L243.948 49.7525C243.56 50.3053 243.004 50.7475 242.393 51.0239C241.616 51.3003 240.838 51.4662 240.116 51.4662ZM239.783 43.5058C239.561 43.5058 239.338 43.5611 239.116 43.6163C238.894 43.7269 238.727 43.8375 238.561 44.0033C238.227 44.4456 238.005 44.9431 237.95 45.4959H241.56V45.2748C241.56 44.7772 241.393 44.335 241.116 43.948C240.949 43.7822 240.727 43.6716 240.505 43.5611C240.283 43.5058 240.005 43.5058 239.783 43.5058Z" fill="#576270"/>
<path d="M249.058 47.5963L250.835 41.5708H253.613L249.725 52.7374L249.502 53.235C249.28 53.7878 248.891 54.2853 248.391 54.617C247.892 54.9486 247.281 55.1145 246.67 55.1145C246.281 55.1145 245.892 55.0592 245.503 54.9486V53.0138H245.892C246.281 53.0138 246.67 52.9586 247.003 52.7927C247.281 52.6269 247.447 52.3505 247.558 52.0741L247.892 51.3001L244.503 41.5708H247.281L249.058 47.5963Z" fill="#576270"/>
</svg>
