<svg width="90" height="90" viewBox="0 0 90 90" fill="none" xmlns="http://www.w3.org/2000/svg">
<g clip-path="url(#clip0_1497_19948)">
<path d="M45 90C69.8535 90 90 69.8535 90 45C90 20.1465 69.8535 0 45 0C20.1465 0 0 20.1465 0 45C0 69.8535 20.1465 90 45 90Z" fill="#576270"/>
<path fill-rule="evenodd" clip-rule="evenodd" d="M25.9971 60.0885C24.6516 59.265 23.8281 57.8025 23.8281 56.2275V47.4345C23.8281 46.3905 24.6786 45.5445 25.7226 45.549C26.0556 45.549 26.3841 45.639 26.6721 45.8055L46.5126 57.375C47.6736 58.05 48.3891 59.292 48.3891 60.6375V69.7455C48.3936 70.9965 47.3811 72.0135 46.1301 72.0135C45.7116 72.0135 45.2976 71.8965 44.9421 71.6805L25.9971 60.0885ZM55.5711 43.398C56.7321 44.073 57.4431 45.3195 57.4476 46.6605V65.1465C57.4476 65.691 57.1551 66.195 56.6781 66.4605L52.3356 68.904C52.2816 68.9355 52.2231 68.958 52.1601 68.976V58.7115C52.1601 57.384 51.4626 56.151 50.3196 55.467L32.8956 45.045V33.4575C32.8956 32.4135 33.7461 31.5675 34.7901 31.572C35.1231 31.572 35.4516 31.662 35.7396 31.8285L55.5711 43.398ZM64.2561 29.745C65.4216 30.42 66.1371 31.6665 66.1371 33.012V60.012C66.1326 60.5655 65.8266 61.074 65.3406 61.3395L61.2231 63.5625V44.766C61.2231 43.4385 60.5256 42.21 59.3916 41.526L41.5806 30.843V19.854C41.5806 19.521 41.6706 19.1925 41.8326 18.9045C42.3591 18.0045 43.5156 17.6985 44.4156 18.2205L64.2561 29.745Z" fill="white"/>
</g>
<defs>
<clipPath id="clip0_1497_19948">
<rect width="90" height="90" fill="white"/>
</clipPath>
</defs>
</svg>
