<svg width="192" height="38" viewBox="0 0 192 38" fill="none" xmlns="http://www.w3.org/2000/svg">
<path d="M30.2017 15.0429V7.52143H26.4217V3.76072H18.8712V0H11.3256V3.76072H3.7752V7.52143H0V30.0857H3.7752V33.8464H11.3208V37.6071H18.8712V33.8464H26.4217V30.0857H30.2017V22.5643H22.6464V26.3155H18.8712V30.0762H11.3256V26.3155H7.55041V11.2821H11.3256V7.52143H18.8712V11.2821H22.6464V15.0429H30.2017Z" fill="#576270"/>
<path d="M50.6565 3.74121C59.3563 3.74121 65.6324 9.85596 65.6324 18.8367C65.6324 27.8174 59.3804 33.8652 50.6565 33.8652C41.9327 33.8652 35.748 27.7504 35.748 18.8367C35.748 9.92295 42.0241 3.74121 50.6565 3.74121ZM50.6565 9.27224C45.8185 9.27224 42.2838 12.9803 42.2838 18.8414C42.2838 24.7026 45.8185 28.339 50.6565 28.339C55.6293 28.339 59.0918 24.6309 59.0918 18.8414C59.0918 13.0521 55.6293 9.27224 50.6565 9.27224Z" fill="#576270"/>
<path d="M70.9277 6.22082C75.1749 4.63283 79.6689 3.79725 84.2059 3.75195C91.5976 3.75195 96.3057 6.54618 96.3057 14.68V33.2157H89.8951V15.259C89.8951 11.0916 87.279 9.59877 83.6817 9.59877C81.5588 9.58462 79.4443 9.86811 77.4008 10.4409V33.2157H70.9277V6.22082Z" fill="#576270"/>
<path d="M111.607 33.2152L100.426 4.39258H107.293L115.469 26.9712L123.596 4.39258H130.267L118.999 33.2152H111.607Z" fill="#576270"/>
<path d="M138.816 20.2679V20.3971C139.205 25.5405 143.654 28.3347 148.169 28.3347C152.157 28.3347 155.037 27.4257 157.913 25.5405V31.2008C155.298 33.0236 151.44 33.8658 147.713 33.8658C138.686 33.8658 132.535 28.1242 132.535 19.0335C132.535 9.94266 138.556 3.72266 146.535 3.72266C154.97 3.72266 158.961 9.11972 158.961 16.9953V20.2487L138.816 20.2679ZM139.014 16.1053H152.877C152.748 11.6125 150.522 9.13885 146.338 9.13885C142.611 9.13885 139.864 11.7417 139.014 16.1053Z" fill="#576270"/>
<path d="M180.767 18.3829L191.497 33.2152H184.105L176.978 23.1292L169.846 33.2152H162.781L173.511 18.445L163.412 4.39258H170.871L177.277 13.6317L183.582 4.39258H190.925L180.767 18.3829Z" fill="#576270"/>
</svg>
