<svg width="178" height="59" viewBox="0 0 178 59" fill="none" xmlns="http://www.w3.org/2000/svg">
<path d="M29.1488 0C13.0537 0 0 13.0537 0 29.1488C0 45.2436 13.0537 58.2975 29.1488 58.2975C45.2436 58.2975 58.2975 45.2436 58.2975 29.1488C58.3442 13.0537 45.2905 0 29.1488 0ZM27.8386 43.5124C26.2479 44.6354 24.3295 45.2905 22.4113 45.2905C19.0426 45.2905 15.9546 43.4657 13.6152 40.0969C11.5098 36.8686 10.3401 33.1257 10.2465 29.289C10.2465 29.1488 10.3401 29.0083 10.4804 28.9616L12.773 27.9322C12.9602 27.8386 13.1473 27.9322 13.2409 28.1193C13.2409 28.1662 13.2877 28.2129 13.2877 28.2598C13.2877 32.0963 14.317 35.6989 16.1417 38.366C17.8729 40.8925 20.1187 42.2491 22.4581 42.2491C23.7214 42.2491 24.9846 41.875 26.014 41.173C26.1543 41.0794 26.3881 41.1264 26.4817 41.2666C26.9497 41.875 27.4176 42.4363 27.9322 42.9978C27.9791 43.1383 27.9791 43.3721 27.8386 43.5124ZM44.729 40.0969C42.4363 43.419 39.3016 45.2905 35.933 45.2905C32.5642 45.2905 29.4762 43.419 27.1368 40.0969C24.9377 36.9155 23.7214 32.7045 23.7214 28.2598C23.7214 24.1424 26.1074 20.9141 29.1019 20.9141C32.0963 20.9141 34.4826 24.1424 34.4826 28.2598C34.5293 31.8625 33.687 35.3715 32.0027 38.5529C31.9091 38.7401 31.6753 38.787 31.5348 38.6934C31.4881 38.6934 31.4881 38.6465 31.4412 38.5998C31.1605 38.2724 30.88 37.9447 30.6459 37.6173C30.3651 37.1963 30.1313 36.822 29.8972 36.354C29.8505 36.2604 29.8505 36.12 29.8972 36.0264C30.9735 33.5467 31.4881 30.8799 31.4881 28.2129C31.4881 26.201 30.4587 23.9085 29.1019 23.9085C27.745 23.9085 26.7158 26.201 26.7158 28.2129C26.7158 32.0496 27.745 35.6523 29.5698 38.3191C31.301 40.8456 33.5467 42.2025 35.8861 42.2025C38.2255 42.2025 40.4713 40.7989 42.2025 38.3191C44.0272 35.6523 45.0564 32.0496 45.0564 28.2129C45.0564 24.3764 44.0272 20.7737 42.2025 18.1068C41.6879 17.3114 41.0328 16.6096 40.331 16.0014C40.1905 15.861 40.1905 15.6271 40.2841 15.4867C40.331 15.4399 40.3777 15.3931 40.4246 15.3931L42.7171 14.3638C42.8575 14.317 42.9978 14.317 43.0914 14.4574C43.6996 15.0656 44.2144 15.7207 44.6823 16.3757C46.8812 19.5572 48.0978 23.768 48.0978 28.2129C48.0978 32.6578 46.9281 36.9155 44.729 40.0969Z" fill="#576270"/>
<path d="M76.6875 35.2399H71.7977C70.6808 35.2399 69.8131 34.9304 69.1944 34.3117C68.5907 33.693 68.2889 32.8328 68.2889 31.731V27.2035C68.2889 26.0868 68.5907 25.2266 69.1944 24.6229C69.8131 24.0042 70.6808 23.6947 71.7977 23.6947H73.654C74.7707 23.6947 75.6384 24.0042 76.2573 24.6229C76.876 25.2266 77.1855 26.0868 77.1855 27.2035V30.0785C77.1855 30.3502 77.0497 30.486 76.778 30.486H70.7112C70.545 30.486 70.4621 30.5614 70.4621 30.7124V31.6858C70.4621 32.7875 71.0129 33.3383 72.1147 33.3383H76.6875C76.9591 33.3383 77.0949 33.4741 77.0949 33.7458V34.8777C77.0949 35.1192 76.9591 35.2399 76.6875 35.2399ZM70.7112 28.9466H74.7633C74.914 28.9466 74.9896 28.8712 74.9896 28.7202V27.2714C74.9896 26.698 74.8613 26.2829 74.6048 26.0264C74.3481 25.7547 73.9332 25.6189 73.3597 25.6189H72.1147C71.541 25.6189 71.1261 25.7547 70.8696 26.0264C70.6129 26.2829 70.4848 26.698 70.4848 27.2714V28.7202C70.4848 28.8712 70.5602 28.9466 70.7112 28.9466ZM81.9431 35.2399H80.5169C80.2602 35.2399 80.1321 35.1115 80.1321 34.855V24.0795C80.1321 23.8231 80.2602 23.6947 80.5169 23.6947H81.9431C82.1996 23.6947 82.3279 23.8231 82.3279 24.0795V24.8945H82.4185C82.7807 24.0947 83.5427 23.6947 84.7049 23.6947H85.7009C86.8025 23.6947 87.6478 23.9965 88.2363 24.6002C88.8249 25.204 89.1192 26.0717 89.1192 27.2035V34.855C89.1192 35.1115 88.9834 35.2399 88.7117 35.2399H87.2856C87.0289 35.2399 86.9007 35.1115 86.9007 34.855V27.2941C86.9007 26.1774 86.3497 25.6189 85.2482 25.6189H84.1842C82.9466 25.6189 82.3279 26.2602 82.3279 27.5431V34.855C82.3279 35.1115 82.1996 35.2399 81.9431 35.2399ZM100.452 35.2399H95.5618C94.4451 35.2399 93.5772 34.9304 92.9585 34.3117C92.3547 33.693 92.053 32.8328 92.053 31.731V27.2035C92.053 26.0868 92.3547 25.2266 92.9585 24.6229C93.5772 24.0042 94.4451 23.6947 95.5618 23.6947H97.4181C98.5348 23.6947 99.4027 24.0042 100.021 24.6229C100.64 25.2266 100.95 26.0868 100.95 27.2035V30.0785C100.95 30.3502 100.814 30.486 100.542 30.486H94.4752C94.3093 30.486 94.2262 30.5614 94.2262 30.7124V31.6858C94.2262 32.7875 94.777 33.3383 95.8787 33.3383H100.452C100.723 33.3383 100.859 33.4741 100.859 33.7458V34.8777C100.859 35.1192 100.723 35.2399 100.452 35.2399ZM94.4752 28.9466H98.5273C98.6783 28.9466 98.7537 28.8712 98.7537 28.7202V27.2714C98.7537 26.698 98.6253 26.2829 98.3689 26.0264C98.1124 25.7547 97.6972 25.6189 97.1238 25.6189H95.8787C95.3053 25.6189 94.8901 25.7547 94.6337 26.0264C94.3772 26.2829 94.2488 26.698 94.2488 27.2714V28.7202C94.2488 28.8712 94.3242 28.9466 94.4752 28.9466ZM105.707 35.2399H104.281C104.025 35.2399 103.896 35.1115 103.896 34.855V24.0795C103.896 23.8231 104.025 23.6947 104.281 23.6947H105.707C105.964 23.6947 106.092 23.8231 106.092 24.0795V24.9398H106.183C106.334 24.5624 106.62 24.2606 107.043 24.0343C107.48 23.8079 107.963 23.6947 108.492 23.6947H109.329C109.586 23.6947 109.714 23.8231 109.714 24.0795V25.2567C109.714 25.5435 109.586 25.6642 109.329 25.6189H107.971C106.718 25.6189 106.092 26.3055 106.092 27.6789V34.855C106.092 35.1115 105.964 35.2399 105.707 35.2399ZM116.142 34.6739H115.123C114.037 34.6739 113.199 34.3722 112.611 33.7684C112.037 33.1497 111.75 32.2818 111.75 31.1651V27.2035C111.75 26.0868 112.06 25.2266 112.679 24.6229C113.297 24.0042 114.158 23.6947 115.259 23.6947H120.33C120.602 23.6947 120.738 23.8231 120.738 24.0795V35.2851C120.738 36.3869 120.421 37.2394 119.787 37.8432C119.168 38.4619 118.308 38.7713 117.206 38.7713H112.95C112.694 38.7713 112.565 38.6507 112.565 38.4091V37.232C112.565 36.9755 112.694 36.8471 112.95 36.8471H116.867C117.968 36.8471 118.519 36.2887 118.519 35.1719V33.4515H118.429C118.051 34.2664 117.289 34.6739 116.142 34.6739ZM118.519 30.8255V25.8453C118.519 25.6943 118.436 25.6189 118.27 25.6189H115.576C114.505 25.6189 113.969 26.1774 113.969 27.2941V31.0519C113.969 32.1686 114.505 32.7271 115.576 32.7271H116.663C117.9 32.7271 118.519 32.0932 118.519 30.8255ZM125.371 38.9071H124.171C123.915 38.9071 123.786 38.7788 123.786 38.5223V37.3678C123.786 37.0961 123.915 36.9603 124.171 36.9603H124.692C125.612 36.9603 126.246 36.7792 126.593 36.417C126.955 36.0548 127.257 35.4588 127.499 34.6286H126.593C126.367 34.6286 126.208 34.5003 126.118 34.2438L123.107 24.0795C123.047 23.8231 123.145 23.6947 123.401 23.6947H124.918C125.16 23.6947 125.311 23.8231 125.371 24.0795L127.838 32.9535H127.929L130.396 24.0795C130.442 23.8231 130.593 23.6947 130.849 23.6947H132.298C132.585 23.6947 132.705 23.8305 132.66 24.1022L129.559 34.9908C129.212 36.2586 128.721 37.2245 128.087 37.8885C127.453 38.5676 126.548 38.9071 125.371 38.9071ZM144.932 35.2399H142.985C142.758 35.2399 142.607 35.1115 142.532 34.855L139.929 24.0795C139.868 23.8231 139.959 23.6947 140.2 23.6947H141.83C142.102 23.6947 142.253 23.8231 142.283 24.0795L143.935 32.6365H144.094L146.086 24.0795C146.131 23.8231 146.275 23.6947 146.516 23.6947H148.01C148.267 23.6947 148.425 23.8231 148.486 24.0795L150.432 32.6365H150.591L152.243 24.0795C152.289 23.8231 152.44 23.6947 152.696 23.6947H154.326C154.583 23.6947 154.673 23.8231 154.598 24.0795L151.994 34.855C151.949 35.1115 151.798 35.2399 151.542 35.2399H149.595C149.353 35.2399 149.203 35.1115 149.142 34.855L147.331 26.4565H147.173L145.384 34.855C145.339 35.1115 145.188 35.2399 144.932 35.2399ZM165.156 35.2399H160.266C159.15 35.2399 158.282 34.9304 157.663 34.3117C157.059 33.693 156.757 32.8328 156.757 31.731V27.2035C156.757 26.0868 157.059 25.2266 157.663 24.6229C158.282 24.0042 159.15 23.6947 160.266 23.6947H162.122C163.239 23.6947 164.107 24.0042 164.726 24.6229C165.345 25.2266 165.654 26.0868 165.654 27.2035V30.0785C165.654 30.3502 165.518 30.486 165.246 30.486H159.18C159.014 30.486 158.931 30.5614 158.931 30.7124V31.6858C158.931 32.7875 159.482 33.3383 160.583 33.3383H165.156C165.428 33.3383 165.563 33.4741 165.563 33.7458V34.8777C165.563 35.1192 165.428 35.2399 165.156 35.2399ZM159.18 28.9466H163.232C163.383 28.9466 163.458 28.8712 163.458 28.7202V27.2714C163.458 26.698 163.33 26.2829 163.073 26.0264C162.817 25.7547 162.402 25.6189 161.828 25.6189H160.583C160.01 25.6189 159.595 25.7547 159.338 26.0264C159.082 26.2829 158.953 26.698 158.953 27.2714V28.7202C158.953 28.8712 159.029 28.9466 159.18 28.9466ZM171.045 33.3157H173.852C174.939 33.3157 175.482 32.7572 175.482 31.6405V27.2035C175.482 26.0868 174.939 25.5284 173.852 25.5284H172.653C171.415 25.5284 170.796 26.1622 170.796 27.4299V33.0667C170.796 33.2326 170.88 33.3157 171.045 33.3157ZM168.601 34.855V19.7105C168.601 19.4539 168.729 19.3257 168.985 19.3257H170.412C170.668 19.3257 170.796 19.4539 170.796 19.7105V24.8266H170.887C171.264 24.0116 172.027 23.6042 173.173 23.6042H174.169C175.286 23.6042 176.154 23.9136 176.773 24.5323C177.392 25.136 177.701 25.9886 177.701 27.0903V31.731C177.701 32.8328 177.392 33.693 176.773 34.3117C176.154 34.9304 175.286 35.2399 174.169 35.2399H168.985C168.729 35.2399 168.601 35.1115 168.601 34.855Z" fill="#576270"/>
</svg>
