<svg width="257" height="256" viewBox="0 0 257 256" fill="none" xmlns="http://www.w3.org/2000/svg">
<ellipse rx="21.5598" ry="22.7748" transform="matrix(0.541715 0.840562 -0.888224 0.45941 224.279 128.424)" fill="url(#paint0_radial_3428_19219)"/>
<path d="M122.021 14.907C108.168 27.4835 70.3821 51.0355 30.0628 44.6311V120.239C30.0628 148.777 23.9488 201.48 122.021 230.611V14.907Z" fill="url(#paint1_linear_3428_19219)"/>
<path d="M122.019 14.907C135.872 27.4835 173.658 51.0355 213.977 44.6311V120.239C213.977 148.777 220.091 201.48 122.019 230.611V14.907Z" fill="url(#paint2_linear_3428_19219)"/>
<ellipse rx="37.5214" ry="35.8318" transform="matrix(0.867917 -0.496709 0.580597 0.814191 53.5568 208.189)" fill="url(#paint3_radial_3428_19219)"/>
<ellipse rx="15.1828" ry="16.732" transform="matrix(0.266668 -0.963788 -0.976221 -0.216777 73.7995 18.2601)" fill="url(#paint4_radial_3428_19219)"/>
<defs>
<radialGradient id="paint0_radial_3428_19219" cx="0" cy="0" r="1" gradientUnits="userSpaceOnUse" gradientTransform="translate(35.1397 12.5705) rotate(144.34) scale(31.9633 32.5728)">
<stop stop-color="#576270"/>
<stop offset="0.473958" stop-color="#23B3E5"/>
<stop offset="1" stop-color="white" stop-opacity="0"/>
</radialGradient>
<linearGradient id="paint1_linear_3428_19219" x1="76.0041" y1="302.512" x2="76.0041" y2="14.907" gradientUnits="userSpaceOnUse">
<stop stop-color="#23B3E5" stop-opacity="0"/>
<stop offset="1" stop-color="#23B3E5"/>
</linearGradient>
<linearGradient id="paint2_linear_3428_19219" x1="168.036" y1="302.512" x2="168.036" y2="14.907" gradientUnits="userSpaceOnUse">
<stop stop-color="#23B3E5"/>
<stop offset="0.9375" stop-color="#23B3E5" stop-opacity="0"/>
</linearGradient>
<radialGradient id="paint3_radial_3428_19219" cx="0" cy="0" r="1" gradientUnits="userSpaceOnUse" gradientTransform="translate(61.155 19.7773) rotate(147.03) scale(53.8719 52.9168)">
<stop stop-color="#576270"/>
<stop offset="0.473958" stop-color="#23B3E5"/>
<stop offset="1" stop-color="white" stop-opacity="0"/>
</radialGradient>
<radialGradient id="paint4_radial_3428_19219" cx="0" cy="0" r="1" gradientUnits="userSpaceOnUse" gradientTransform="translate(24.746 9.23519) rotate(143.183) scale(22.8446 23.5789)">
<stop stop-color="#576270"/>
<stop offset="0.473958" stop-color="#23B3E5"/>
<stop offset="1" stop-color="white" stop-opacity="0"/>
</radialGradient>
</defs>
</svg>
