<svg width="144" height="143" viewBox="0 0 144 143" fill="none" xmlns="http://www.w3.org/2000/svg">
<ellipse rx="16.6613" ry="15.61" transform="matrix(0.314171 -0.949366 0.931021 0.364966 123.42 29.9669)" fill="url(#paint0_radial_3428_24428)"/>
<ellipse cx="13.1929" cy="52.7149" rx="13.0054" ry="14.1548" fill="url(#paint1_radial_3428_24428)"/>
<ellipse rx="7.17769" ry="6.88011" transform="matrix(-0.468192 0.883627 0.846988 0.531612 72.6095 133)" fill="url(#paint2_radial_3428_24428)"/>
<path d="M101.913 94.8543L133.978 75.9812V114.047L101.913 132.909V94.8543Z" fill="url(#paint3_linear_3428_24428)"/>
<path d="M101.913 94.8541L70.072 75.9812L70.1467 114.053L101.913 132.919V94.8541Z" fill="url(#paint4_linear_3428_24428)"/>
<path d="M101.915 94.8533L70.0738 75.9803L101.989 57.1072L133.98 75.9803L101.915 94.8533Z" fill="url(#paint5_linear_3428_24428)"/>
<path d="M38.0828 94.8543L70.073 75.9812L70.1478 114.047L38.0828 132.926V94.8543Z" fill="url(#paint6_linear_3428_24428)"/>
<path d="M38.0828 94.8541L6.24199 75.9812V114.04L38.0828 132.919V94.8541Z" fill="url(#paint7_linear_3428_24428)"/>
<path d="M38.0832 94.8537L6.24247 75.9807L38.0085 56.8635L70.1483 75.8993L38.0832 94.8537Z" fill="url(#paint8_linear_3428_24428)"/>
<path d="M69.9985 37.6638L101.989 18.8721V57.2404L70.148 75.9508L69.9985 37.6638Z" fill="url(#paint9_linear_3428_24428)"/>
<path d="M69.9988 37.6639L38.0085 18.8721V56.8837L70.1483 75.8982L69.9988 37.6639Z" fill="url(#paint10_linear_3428_24428)"/>
<path d="M69.9988 37.6648L38.0085 18.8731L70.0694 0L101.989 18.8731L69.9988 37.6648Z" fill="url(#paint11_linear_3428_24428)"/>
<defs>
<radialGradient id="paint0_radial_3428_24428" cx="0" cy="0" r="1" gradientUnits="userSpaceOnUse" gradientTransform="translate(27.1557 8.61589) rotate(147.528) scale(23.7885 23.182)">
<stop stop-color="#576270"/>
<stop offset="0.473958" stop-color="#23B3E5"/>
<stop offset="1" stop-color="white" stop-opacity="0"/>
</radialGradient>
<radialGradient id="paint1_radial_3428_24428" cx="0" cy="0" r="1" gradientUnits="userSpaceOnUse" gradientTransform="translate(21.3846 46.3728) rotate(143.525) scale(19.4817 20.0359)">
<stop stop-color="#576270"/>
<stop offset="0.473958" stop-color="#23B3E5"/>
<stop offset="1" stop-color="white" stop-opacity="0"/>
</radialGradient>
<radialGradient id="paint2_radial_3428_24428" cx="0" cy="0" r="1" gradientUnits="userSpaceOnUse" gradientTransform="translate(11.6987 3.79746) rotate(146.932) scale(10.3169 10.1494)">
<stop stop-color="#576270"/>
<stop offset="0.473958" stop-color="#23B3E5"/>
<stop offset="1" stop-color="white" stop-opacity="0"/>
</radialGradient>
<linearGradient id="paint3_linear_3428_24428" x1="117.983" y1="86.265" x2="135.845" y2="114.945" gradientUnits="userSpaceOnUse">
<stop stop-color="#23B3E5"/>
<stop offset="1" stop-color="#23B3E5" stop-opacity="0"/>
</linearGradient>
<linearGradient id="paint4_linear_3428_24428" x1="85.9176" y1="75.9812" x2="85.9176" y2="132.926" gradientUnits="userSpaceOnUse">
<stop stop-color="#23B3E5"/>
<stop offset="1" stop-color="#23B3E5" stop-opacity="0"/>
</linearGradient>
<linearGradient id="paint5_linear_3428_24428" x1="69.9991" y1="76.1337" x2="133.838" y2="76.1337" gradientUnits="userSpaceOnUse">
<stop stop-color="#23B3E5"/>
<stop offset="1" stop-color="#23B3E5" stop-opacity="0"/>
</linearGradient>
<linearGradient id="paint6_linear_3428_24428" x1="54.1526" y1="86.265" x2="72.0145" y2="114.945" gradientUnits="userSpaceOnUse">
<stop stop-color="#23B3E5"/>
<stop offset="1" stop-color="#23B3E5" stop-opacity="0"/>
</linearGradient>
<linearGradient id="paint7_linear_3428_24428" x1="22.0876" y1="75.9812" x2="22.0876" y2="132.926" gradientUnits="userSpaceOnUse">
<stop stop-color="#23B3E5"/>
<stop offset="1" stop-color="#23B3E5" stop-opacity="0"/>
</linearGradient>
<linearGradient id="paint8_linear_3428_24428" x1="6.1677" y1="76.1341" x2="70.007" y2="76.1341" gradientUnits="userSpaceOnUse">
<stop stop-color="#23B3E5"/>
<stop offset="1" stop-color="#23B3E5" stop-opacity="0"/>
</linearGradient>
<linearGradient id="paint9_linear_3428_24428" x1="86.0684" y1="29.0226" x2="104.041" y2="57.6626" gradientUnits="userSpaceOnUse">
<stop stop-color="#23B3E5"/>
<stop offset="1" stop-color="#23B3E5" stop-opacity="0"/>
</linearGradient>
<linearGradient id="paint10_linear_3428_24428" x1="54.0036" y1="18.7094" x2="54.0036" y2="75.8167" gradientUnits="userSpaceOnUse">
<stop stop-color="#23B3E5"/>
<stop offset="1" stop-color="#23B3E5" stop-opacity="0"/>
</linearGradient>
<linearGradient id="paint11_linear_3428_24428" x1="38.0085" y1="19.0265" x2="101.848" y2="19.0265" gradientUnits="userSpaceOnUse">
<stop stop-color="#23B3E5"/>
<stop offset="1" stop-color="white"/>
</linearGradient>
</defs>
</svg>
