<svg width="214" height="194" viewBox="0 0 214 194" fill="none" xmlns="http://www.w3.org/2000/svg">
<ellipse rx="17.055" ry="17.055" transform="matrix(-0.0966476 0.995319 -0.995319 -0.0966464 185.81 95.2898)" fill="url(#paint0_radial_3428_25449)"/>
<ellipse rx="10.7345" ry="10.7345" transform="matrix(0.916206 -0.400708 -0.400707 -0.916206 51.3247 14.1371)" fill="url(#paint1_radial_3428_25449)"/>
<path fill-rule="evenodd" clip-rule="evenodd" d="M109.158 188.328C107.232 188.328 105.691 190.253 105.691 191.408C105.691 192.563 107.232 193.333 109.158 193.333C110.174 193.333 110.547 192.904 110.899 192.499C111.214 192.137 111.512 191.793 112.239 191.793C112.856 191.793 113.226 192.04 113.669 192.335C114.335 192.779 115.167 193.333 117.247 193.333H121.485C122.57 193.333 123.288 193.089 123.915 192.875C124.401 192.71 124.832 192.563 125.337 192.563C125.794 192.563 126.131 192.684 126.537 192.83C127.159 193.052 127.944 193.333 129.574 193.333C132.271 193.333 133.811 192.178 133.811 190.638C133.811 189.098 133.041 187.559 126.492 187.559C126.492 185.249 124.566 179.089 121.099 174.084C120.468 173.173 119.837 172.325 119.236 171.518C116.536 167.894 114.446 165.088 115.706 160.994C117.247 155.989 116.477 152.909 115.321 155.989C115.152 156.496 115.057 156.928 114.972 157.319C114.862 157.819 114.767 158.252 114.551 158.684C114.166 159.454 112.625 160.994 112.625 156.374C112.625 151.754 112.625 145.594 118.403 140.59L118.863 140.191C124.409 135.393 128.573 131.79 134.197 119.8C135.609 116.789 136.745 114.262 137.689 112.16C140.609 105.663 141.241 104.223 142.819 103.602C143.078 103.602 143.021 103.333 143.021 103.333C143.021 103.333 139.205 104.616 139.205 102.09C137.665 103.63 136.124 105.17 134.583 110.175C133.042 115.18 129.19 120.955 126.879 124.42C126.528 124.946 126.15 125.525 125.758 126.127C123.568 129.488 120.925 133.543 119.945 132.89C118.789 132.12 113.781 125.575 114.552 123.265C114.906 122.202 115.668 121.139 116.538 119.926C117.559 118.503 118.727 116.874 119.559 114.795C119.798 114.199 120.036 113.594 120.273 112.993C121.568 109.708 122.82 106.532 123.796 105.555C123.26 105.648 122.186 105.5 122.186 104.166C122.186 102.5 118.981 104.4 117.642 104.4C117.347 104.447 116.888 104.478 116.362 104.444C117.122 105.021 117.633 105.905 117.633 107.095C117.633 107.338 117.637 107.598 117.642 107.872C117.68 110.202 117.735 113.539 115.322 115.95C112.625 118.645 109.929 122.11 111.47 125.96C110.314 124.805 108.773 122.11 108.388 118.26C108.214 116.527 107.573 115.262 106.954 114.043C106.199 112.555 105.48 111.137 105.691 109.02C106.03 105.633 107.562 101.948 109.499 100.324C107.685 101.503 105.236 102.88 105.691 101.705C104.921 103.63 103.38 108.635 103.765 110.56C104.137 112.416 98.7819 104.614 100.119 101.979C99.1467 103.446 98.5852 103.993 98.2796 104.069C98.3864 104.398 98.4967 104.759 98.6142 105.144C99.2615 107.265 100.128 110.105 101.839 112.1C104.151 114.795 105.692 116.72 106.462 120.57C106.623 121.377 106.734 122.049 106.83 122.628C107.189 124.811 107.332 125.674 109.158 127.5C109.358 127.699 109.574 127.909 109.802 128.131C112.215 130.479 115.893 134.058 113.781 138.28C111.932 141.976 109.929 144.696 109.158 145.594C108.902 143.798 108.311 139.897 108.003 138.665C107.857 138.084 107.328 137.502 106.705 136.818C105.676 135.688 104.391 134.277 104.151 132.12C103.765 128.655 102.61 122.495 96.8316 117.49C91.7499 113.088 91.4353 109.878 91.9574 108.382C91.2938 109.504 90.3459 109.537 89.9089 109.388C90.1995 109.563 90.3065 110.042 90.6681 110.945C90.7855 111.239 90.9029 111.568 91.0326 111.932C91.7539 113.953 92.8548 117.039 96.4463 120.955C100.684 125.575 101.839 130.195 102.224 134.045C102.384 135.642 103.008 136.841 103.711 138.193C104.702 140.1 105.851 142.309 106.077 146.365C106.196 148.51 106.167 150.545 106.14 152.514C106.079 156.907 106.022 160.976 107.617 165.229C107.797 165.709 107.992 166.224 108.196 166.767L108.198 166.772L108.203 166.784C110.628 173.217 114.551 183.627 114.551 187.174C114.144 187.174 113.737 187.365 113.245 187.596C112.341 188.02 111.153 188.578 109.158 188.328ZM120.33 104.4C121.485 103.63 121.871 104.4 121.1 105.555C120.33 106.71 118.789 105.94 120.33 104.4Z" fill="url(#paint2_linear_3428_25449)"/>
<path fill-rule="evenodd" clip-rule="evenodd" d="M110.314 99.7805C110.036 99.9193 109.764 100.103 109.499 100.324C109.792 100.134 110.069 99.9488 110.314 99.7805Z" fill="url(#paint3_linear_3428_25449)"/>
<path d="M144.208 103.255H144.208C146.2 103.293 148.025 103.328 150.761 100.936C151.489 100.299 152.067 99.7696 152.555 99.3224L152.555 99.3223C154.132 97.8768 154.774 97.2887 156.539 96.7006C158.426 96.072 159.03 95.9566 160.236 95.7259C160.507 95.674 160.808 95.6163 161.162 95.5457C162.062 95.3658 163.045 94.598 163.877 93.9485C164.827 93.2074 165.579 92.6202 165.784 93.2357C165.944 93.7146 165.773 94.3919 165.6 95.0757L165.6 95.0759C165.355 96.0415 165.108 97.02 165.784 97.4707C166.94 98.2407 170.022 99.0107 172.333 99.0107C173.406 99.0107 174.147 99.4253 174.94 99.8696C175.857 100.383 176.845 100.936 178.496 100.936C180.8 100.936 181.597 99.6451 182.496 98.1896L182.496 98.1894C182.8 97.6975 183.115 97.1868 183.504 96.7006C185.045 94.7758 187.356 94.3908 189.282 95.1608C191.209 95.9307 194.29 97.0858 196.216 95.1608C197.233 94.1446 196.962 93.4503 196.705 92.7947C196.476 92.2083 196.259 91.6529 196.987 90.9259C197.582 90.3305 197.833 89.7352 198.027 89.2733C198.335 88.5405 198.502 88.1436 199.683 88.6159C201.609 89.3859 201.994 88.6158 202.765 87.0759C203.381 85.8439 204.491 86.5831 205.896 87.5194C206.247 87.7534 206.617 87.9998 207.002 88.2308C208.928 89.3858 211.24 89.7708 212.78 87.8459C214.321 85.9209 214.321 83.996 212.01 82.841C210.754 82.2132 210.977 81.3579 211.195 80.5224C211.378 79.8209 211.558 79.1333 210.854 78.6061C210.044 77.9988 209.447 76.7527 208.839 75.4837L208.839 75.4835C208.29 74.3392 207.733 73.1764 207.002 72.4462C206.104 71.5484 205.337 71.5666 204.547 71.5853C203.983 71.5987 203.407 71.6124 202.765 71.2913C201.224 70.5213 201.609 70.1363 203.15 69.3663C203.912 68.9854 203.826 68.6988 203.684 68.2267C203.54 67.7444 203.337 67.0687 203.921 65.9014C205.076 63.5915 205.847 60.8965 201.609 60.5115C197.372 60.1265 198.528 57.4316 201.224 56.6616C203.921 55.8916 203.15 52.8117 201.609 51.6567C200.813 51.0601 201.354 50.5662 201.956 50.0157C202.52 49.5007 203.137 48.9362 202.765 48.1918C202.448 47.5586 202.327 47.2508 202.106 47.0544C201.79 46.7732 201.271 46.7202 199.683 46.2669C196.987 45.4969 196.216 44.3419 195.061 42.417C194.055 40.7414 192.757 41.1077 191.421 41.4846C191.223 41.5408 191.023 41.5971 190.823 41.647C189.282 42.032 186.201 42.417 185.816 39.722C185.591 38.1484 184.578 37.2311 183.697 36.4336C183.069 35.8653 182.509 35.3579 182.349 34.7172C182.269 34.3982 182.239 33.9307 182.203 33.3829C182.068 31.2858 181.856 28.0128 178.496 27.4023C175.124 26.7894 176.632 25.2008 177.777 23.9956C178.07 23.6867 178.339 23.4031 178.496 23.1674C179.267 22.0125 180.423 18.9325 177.726 17.0076C175.03 15.0826 173.104 13.9277 170.022 15.4676C168.072 16.4421 168.59 15.4124 169.331 13.9395C169.761 13.0848 170.266 12.0809 170.407 11.2327C170.792 8.92275 168.096 8.53776 165.014 9.30774C161.932 10.0777 156.539 13.9275 157.31 17.0076C158.08 20.0877 153.458 20.4728 154.228 15.8528C154.998 11.2327 154.228 9.6929 152.687 8.53793C151.146 7.38296 148.065 7.38296 146.909 7.76795C146.193 8.00634 146.512 7.35897 147.041 6.28294C147.366 5.62125 147.771 4.79747 148.065 3.91788C148.835 1.60794 145.368 -1.087 139.975 0.452964C134.582 1.99293 134.197 4.30295 134.197 6.99788C134.197 9.38394 132.989 8.14843 131.375 6.49784L131.372 6.49461C131.164 6.28194 130.95 6.06243 130.73 5.84291C129.258 4.37204 127.787 5.82332 126.487 7.10512L126.487 7.10524C126.085 7.50092 125.7 7.88043 125.337 8.15286C124.941 8.45005 124.544 8.97666 124.108 9.55559L124.108 9.55571C122.85 11.2266 121.264 13.3333 118.403 11.6178C114.551 9.30783 109.929 9.69282 108.002 14.6977C106.598 18.3472 105.398 17.6979 104.254 17.0785C103.829 16.8485 103.412 16.6227 102.995 16.6227C102.459 16.6227 102.063 16.9018 101.661 17.1851C100.907 17.7169 100.131 18.2635 98.3721 17.0076C95.6756 15.0827 89.5122 21.2425 87.2009 24.3225C85.4567 26.6467 85.2482 25.0245 85.0853 23.7577C85.0323 23.3458 84.9842 22.9714 84.8896 22.7825C84.5044 22.0125 81.0375 20.8575 77.5706 22.7825C75.498 23.9333 75.6281 23.2954 75.8212 22.3493C75.951 21.7129 76.1093 20.9371 75.6445 20.4726C74.4889 19.3176 73.3333 18.1626 71.022 18.1626C69.6324 18.1626 69.3567 19.6933 69.1067 21.0815C68.9409 22.0023 68.7863 22.8604 68.3255 23.1675C67.1698 23.9375 63.7029 27.4024 63.3177 30.4823C63.1077 32.1617 61.4088 32.0097 59.47 31.8362C57.8531 31.6915 56.0692 31.5319 54.843 32.4073C53.6161 33.2831 53.5854 34.7965 53.5536 36.3673C53.5154 38.249 53.4756 40.2129 51.3761 41.2621C47.8275 43.0353 48.2017 40.2346 48.5838 37.3745C48.6165 37.1299 48.6493 36.8848 48.6796 36.6422C49.0648 33.5622 45.5982 32.7923 42.9017 34.3322C40.9156 35.4665 39.9744 35.5564 38.6928 35.679C38.2344 35.7228 37.7324 35.7708 37.1235 35.8722C36.4958 35.9767 35.9249 36.1097 35.3646 36.2402L35.3646 36.2402C33.8616 36.5902 32.4344 36.9226 30.1897 36.6422C28.1206 36.3837 27.2671 37.6871 26.23 39.2707C25.7225 40.0458 25.171 40.888 24.4115 41.647C22.3604 43.6969 21.5228 43.9277 19.4758 44.4918C19.2161 44.5633 18.9369 44.6403 18.6333 44.727C15.9368 45.497 16.322 48.5769 17.0924 50.8868C17.4705 52.0204 16.9208 52.9686 16.3994 53.8678C15.8584 54.8009 15.3479 55.6814 15.9365 56.6617C16.348 57.347 17.5406 58.0811 18.7843 58.8467L18.7844 58.8468C21.034 60.2315 23.4505 61.719 21.7141 63.2065C20.7772 64.0091 19.5147 64.3005 18.2984 64.5812C16.014 65.1084 13.8923 65.598 14.395 69.3664C14.9354 73.4168 16.9921 75.1945 18.571 76.5591L18.571 76.5592C19.2432 77.1402 19.8288 77.6463 20.1739 78.2212C21.3295 80.1461 19.019 80.1461 16.707 77.8362C15.3443 76.4747 14.9188 76.9856 14.2471 77.7924C13.7791 78.3544 13.1916 79.06 12.0844 79.3761C11.1856 79.5045 9.07976 80.4541 7.84708 83.226C6.521 86.208 4.90961 87.7642 3.504 89.1217C3.27634 89.3416 3.05408 89.5562 2.83931 89.7709C1.94769 90.662 2.08794 91.682 2.21515 92.6071C2.30778 93.2808 2.3935 93.9041 2.06888 94.3908C1.29845 95.5458 -2.16847 102.861 4.76537 102.861C8.53996 102.861 10.2599 101.263 11.2922 100.305C12.1562 99.5023 12.5385 99.1473 13.2406 100.551C14.5479 103.164 16.6871 102.174 18.4818 101.344L18.482 101.344C18.8025 101.196 19.1121 101.052 19.404 100.936C20.4073 100.535 20.0517 101.283 19.5896 102.255C19.1647 103.149 18.6497 104.232 19.0188 104.786C19.3218 105.24 19.8038 105.456 20.2769 105.668C21.0065 105.995 21.7153 106.313 21.7153 107.48C21.7153 109.405 23.6413 112.87 28.2639 111.33C30.9309 110.442 32.572 108.913 33.6313 107.926C34.408 107.202 34.8718 106.77 35.1977 107.095C35.3852 107.283 35.5271 107.607 35.69 107.979C36.1964 109.137 36.9057 110.758 39.8203 110.175C41.3325 109.873 42.7854 109.037 43.9925 108.342C45.8602 107.267 47.1393 106.531 47.1393 108.635C47.1393 112.1 48.6802 114.025 51.7619 113.64C53.4276 113.432 54.3055 112.324 55.1256 111.289L55.1257 111.289C55.8228 110.409 56.4781 109.582 57.5401 109.405C58.4526 109.253 59.1249 108.501 59.8889 107.647C61.0601 106.337 62.4468 104.786 65.2444 104.786C69.2817 104.786 70.3805 106.254 70.8507 106.882C70.9188 106.973 70.9738 107.047 71.0226 107.095C71.0754 107.148 71.1283 107.23 71.1942 107.332C71.6079 107.973 72.5333 109.405 77.186 109.405C79.5509 109.405 81.3232 109.628 82.7953 109.812L82.7954 109.812L82.7955 109.812C84.6802 110.048 86.0728 110.223 87.5867 109.79C89.0177 109.382 89.5808 109.19 89.9093 109.388C90.4055 109.558 91.5602 109.491 92.2094 107.865C92.8258 106.941 93.7503 105.94 94.1355 105.555C94.5011 105.19 94.8667 104.76 95.222 104.341C96.3642 102.997 97.5949 102.413 98.1825 103.881C98.3749 104.341 99.5143 102.034 100.299 101.705C101.84 100.935 106.462 99.7805 105.692 101.705C105.497 102.379 106.149 102.938 110.314 99.7804C111.563 99.1567 111.912 100.33 112.273 101.54C112.58 102.572 112.895 103.63 113.781 103.63C114.384 103.965 115.999 104.587 117.638 104.4C119.688 104.167 122.188 102.967 122.188 104.4C122.188 105.547 123.26 105.648 123.797 105.555C124.297 105.056 124.652 105.349 125.176 105.779C125.862 106.345 126.837 107.147 128.805 106.71C130.92 106.241 132.031 105.197 133.101 104.193L133.102 104.193C133.785 103.552 134.452 102.926 135.353 102.475C137.664 101.32 140.362 100.165 139.206 102.09C139.092 102.989 139.779 104.477 143.442 103.245C143.701 103.245 143.956 103.25 144.208 103.255Z" fill="url(#paint4_linear_3428_25449)"/>
<ellipse rx="24.6497" ry="24.6497" transform="matrix(-0.831121 0.556092 -0.556091 -0.831121 79.7153 130.861)" fill="url(#paint5_radial_3428_25449)"/>
<defs>
<radialGradient id="paint0_radial_3428_25449" cx="0" cy="0" r="1" gradientUnits="userSpaceOnUse" gradientTransform="translate(27.7975 9.4135) rotate(145.814) scale(24.8346 24.8346)">
<stop stop-color="#576270"/>
<stop offset="0.473958" stop-color="#23B3E5"/>
<stop offset="1" stop-color="white"/>
</radialGradient>
<radialGradient id="paint1_radial_3428_25449" cx="0" cy="0" r="1" gradientUnits="userSpaceOnUse" gradientTransform="translate(17.4958 5.92487) rotate(145.814) scale(15.6309 15.6309)">
<stop stop-color="#576270"/>
<stop offset="0.473958" stop-color="#23B3E5"/>
<stop offset="1" stop-color="white"/>
</radialGradient>
<linearGradient id="paint2_linear_3428_25449" x1="133.021" y1="193.333" x2="98.4667" y2="87.2598" gradientUnits="userSpaceOnUse">
<stop offset="0.387373" stop-color="#576270"/>
<stop offset="1" stop-color="white" stop-opacity="0"/>
</linearGradient>
<linearGradient id="paint3_linear_3428_25449" x1="133.021" y1="193.333" x2="98.4667" y2="87.2598" gradientUnits="userSpaceOnUse">
<stop offset="0.387373" stop-color="#576270"/>
<stop offset="1" stop-color="white" stop-opacity="0"/>
</linearGradient>
<linearGradient id="paint4_linear_3428_25449" x1="21.3543" y1="50" x2="195.482" y2="109.699" gradientUnits="userSpaceOnUse">
<stop stop-color="#23B3E5"/>
<stop offset="0.0001" stop-color="#23B3E5"/>
<stop offset="1" stop-color="#23B3E5" stop-opacity="0"/>
</linearGradient>
<radialGradient id="paint5_radial_3428_25449" cx="0" cy="0" r="1" gradientUnits="userSpaceOnUse" gradientTransform="translate(40.1758 13.6054) rotate(145.814) scale(35.8935 35.8935)">
<stop stop-color="#576270"/>
<stop offset="0.473958" stop-color="#23B3E5"/>
<stop offset="1" stop-color="white"/>
</radialGradient>
</defs>
</svg>
