<svg width="144" height="143" viewBox="0 0 144 143" fill="none" xmlns="http://www.w3.org/2000/svg">
<ellipse cx="69.7709" cy="67.6915" rx="31.7519" ry="32.1363" fill="url(#paint0_linear_3428_18270)"/>
<ellipse rx="17.457" ry="17.6593" transform="matrix(-0.989081 0.147374 -0.143943 -0.989586 61.7105 122.952)" fill="url(#paint1_radial_3428_18270)"/>
<ellipse rx="14.8273" ry="14.7384" transform="matrix(-0.495494 0.868611 -0.8634 -0.504519 123.116 20.315)" fill="url(#paint2_radial_3428_18270)"/>
<ellipse rx="7.66927" ry="7.62334" transform="matrix(-0.495927 -0.868364 -0.863146 0.504955 10.5709 37.346)" fill="url(#paint3_radial_3428_18270)"/>
<path d="M105.401 62.2422C105.401 65.9283 108.389 68.9165 112.075 68.9165C115.761 68.9165 118.749 65.9283 118.749 62.2422H105.401ZM21.616 62.2422C21.616 39.1057 40.3718 20.3499 63.5083 20.3499V7.00122C32.9996 7.00122 8.26733 31.7335 8.26733 62.2422H21.616ZM63.5083 20.3499C86.6448 20.3499 105.401 39.1057 105.401 62.2422H118.749C118.749 31.7335 94.0171 7.00122 63.5083 7.00122V20.3499Z" fill="url(#paint4_linear_3428_18270)"/>
<path d="M14.8657 79.1477L2.15458 57.1313L27.5769 57.1313L14.8657 79.1477Z" fill="#23B3E5"/>
<path d="M34.143 74.3374C34.143 70.6512 31.1548 67.663 27.4687 67.663C23.7826 67.663 20.7944 70.6512 20.7944 74.3374L34.143 74.3374ZM117.928 74.3374C117.928 97.4739 99.1719 116.23 76.0354 116.23L76.0354 129.578C106.544 129.578 131.276 104.846 131.276 74.3374L117.928 74.3374ZM76.0354 116.23C52.8989 116.23 34.143 97.4739 34.143 74.3374L20.7944 74.3374C20.7944 104.846 45.5266 129.578 76.0354 129.578L76.0354 116.23Z" fill="url(#paint5_linear_3428_18270)"/>
<path d="M124.678 57.4319L137.389 79.4483L111.967 79.4483L124.678 57.4319Z" fill="#23B3E5"/>
<defs>
<linearGradient id="paint0_linear_3428_18270" x1="69.7709" y1="111.71" x2="32.5177" y2="81.513" gradientUnits="userSpaceOnUse">
<stop stop-color="#23B3E5" stop-opacity="0"/>
<stop offset="1" stop-color="#23B3E5"/>
</linearGradient>
<radialGradient id="paint1_radial_3428_18270" cx="0" cy="0" r="1" gradientUnits="userSpaceOnUse" gradientTransform="translate(28.4526 9.747) rotate(145.506) scale(25.5132 25.6203)">
<stop stop-color="#576270"/>
<stop offset="0.473958" stop-color="#23B3E5"/>
<stop offset="1" stop-color="white"/>
</radialGradient>
<radialGradient id="paint2_radial_3428_18270" cx="0" cy="0" r="1" gradientUnits="userSpaceOnUse" gradientTransform="translate(24.1666 8.13482) rotate(145.974) scale(21.5499 21.5018)">
<stop stop-color="#576270"/>
<stop offset="0.473958" stop-color="#23B3E5"/>
<stop offset="1" stop-color="white" stop-opacity="0"/>
</radialGradient>
<radialGradient id="paint3_radial_3428_18270" cx="0" cy="0" r="1" gradientUnits="userSpaceOnUse" gradientTransform="translate(12.4999 4.20769) rotate(145.974) scale(11.1465 11.1217)">
<stop stop-color="#576270"/>
<stop offset="0.473958" stop-color="#23B3E5"/>
<stop offset="1" stop-color="white"/>
</radialGradient>
<linearGradient id="paint4_linear_3428_18270" x1="109.77" y1="52.0217" x2="56.6129" y2="31.8143" gradientUnits="userSpaceOnUse">
<stop stop-color="#23B3E5" stop-opacity="0"/>
<stop offset="1" stop-color="#23B3E5"/>
</linearGradient>
<linearGradient id="paint5_linear_3428_18270" x1="29.7741" y1="84.5579" x2="82.9308" y2="104.765" gradientUnits="userSpaceOnUse">
<stop stop-color="#23B3E5" stop-opacity="0"/>
<stop offset="1" stop-color="#23B3E5"/>
</linearGradient>
</defs>
</svg>
