<svg width="143" height="63" viewBox="0 0 143 63" fill="none" xmlns="http://www.w3.org/2000/svg">
<path d="M99.1011 53.1207L97.8663 56.0291L100.656 62.5726H103.217L99.1011 53.1207Z" fill="#576270"/>
<path d="M97.1348 47.4862H94.6651L88.0797 62.5726H90.6408L97.1348 47.4862Z" fill="#576270"/>
<path d="M91.0978 2.49928H85.7472V0.272661H98.8722V2.49928H93.5217V15.3591H91.0978V2.49928Z" fill="#576270"/>
<path d="M64.802 23.8566V36.7165H72.7136V38.943H62.3326V23.8566H64.802Z" fill="#576270"/>
<path d="M95.1679 26.1287H89.8174V23.9021H102.942V26.1287H97.5918V38.9885H95.1679V26.1287Z" fill="#576270"/>
<path d="M107.836 38.943H105.412V23.8566H107.836V38.943Z" fill="#576270"/>
<path d="M73.0337 62.5726H70.6101V47.4862H73.0337V62.5726Z" fill="#576270"/>
<path d="M80.854 49.7127H75.5034V47.4862H88.6284V49.7127H83.2778V62.5726H80.854V49.7127Z" fill="#576270"/>
<path d="M105.412 47.4862H107.836V60.3458H115.793V62.5726H105.412V47.4862Z" fill="#576270"/>
<path d="M24.4667 7.04337V15.8135H26.8905V9.26997H34.3449V7.04337H24.4667Z" fill="#576270"/>
<path d="M34.3449 0.272661H24.4667V2.49928H34.3449V0.272661Z" fill="#576270"/>
<path d="M45.1374 13.3143C43.5825 13.3143 42.3477 12.769 41.3415 11.7238C40.3355 10.6787 39.7866 9.36087 39.7866 7.81587C39.7866 6.27087 40.2897 4.95308 41.3415 3.90794C42.3477 2.86279 43.6281 2.3175 45.1374 2.3175C46.6465 2.3175 47.9269 2.86279 48.9331 3.90794C49.939 4.95308 50.488 6.27087 50.488 7.81587H53.0033C53.0033 5.58927 52.2257 3.72619 50.7166 2.22662C49.2531 0.727058 47.3782 0 45.1374 0C42.8964 0 41.0214 0.727058 39.5124 2.22662C38.0031 3.72619 37.2713 5.58927 37.2713 7.81587C37.2713 10.0425 38.0031 11.9056 39.5124 13.4051C41.0214 14.9047 42.8964 15.6318 45.1374 15.6318V13.3143Z" fill="#576270"/>
<path d="M51.5856 36.8984C50.0307 36.8984 48.7961 36.3529 47.7899 35.3078C46.7837 34.2627 46.235 32.9449 46.235 31.3999C46.235 29.8549 46.7381 28.5371 47.7899 27.492C48.7961 26.4468 50.0766 25.9015 51.5856 25.9015C53.0949 25.9015 54.3753 26.4468 55.3813 27.492C56.3875 28.5371 56.9362 29.8549 56.9362 31.3999H59.4514C59.4514 29.1734 58.6741 27.3101 57.1651 25.8106C55.6558 24.311 53.7808 23.584 51.54 23.584C49.299 23.584 47.4241 24.311 45.915 25.8106C44.4057 27.3101 43.6739 29.1734 43.6739 31.3999C43.6739 33.6265 44.4057 35.4895 45.915 36.9892C47.4241 38.4886 49.299 39.2157 51.54 39.2157V36.8984H51.5856Z" fill="#576270"/>
<path d="M118.628 36.8984C117.074 36.8984 115.839 36.3529 114.833 35.3078C113.827 34.2627 113.278 32.9449 113.278 31.3999C113.278 29.8549 113.781 28.5371 114.833 27.492C115.839 26.4468 117.119 25.9015 118.628 25.9015C120.138 25.9015 121.418 26.4468 122.424 27.492C123.43 28.5371 123.979 29.8549 123.979 31.3999H126.494C126.494 29.1734 125.717 27.3101 124.208 25.8106C122.699 24.311 120.824 23.584 118.583 23.584C116.342 23.584 114.467 24.311 112.958 25.8106C111.449 27.3101 110.717 29.1734 110.717 31.3999C110.717 33.6265 111.449 35.4895 112.958 36.9892C114.467 38.4886 116.342 39.2157 118.583 39.2157V36.8984H118.628Z" fill="#576270"/>
<path d="M131.708 32.763H129.375V38.943H131.708V32.763Z" fill="#576270"/>
<path d="M140.214 23.8566V34.8079L131.525 23.8566H128.415L140.397 38.943H142.546V23.8566H140.214Z" fill="#576270"/>
<path d="M66.3569 9.3609C66.3569 10.5424 65.9454 11.4966 65.1679 12.2691C64.3906 13.0416 63.4302 13.4506 62.2412 13.4506C61.0977 13.4506 60.0918 13.0416 59.2686 12.2691C58.4911 11.4966 58.0796 10.5424 58.0796 9.3609V0.272661H55.6558V9.31546C55.6558 11.1331 56.2961 12.6327 57.5307 13.8141C58.8114 15.041 60.3662 15.6318 62.1953 15.6318C64.0247 15.6318 65.6254 15.041 66.86 13.8141C68.1407 12.5872 68.7352 11.0877 68.7352 9.31546V5.81648H66.3569V9.3609Z" fill="#576270"/>
<path d="M85.153 32.9449C85.153 34.1264 84.7413 35.0806 83.964 35.853C83.1864 36.6256 82.226 37.0345 81.037 37.0345C79.8938 37.0345 78.8876 36.6256 78.0645 35.853C77.2869 35.0806 76.8755 34.1264 76.8755 32.9449V23.8566H74.4516V32.8994C74.4516 34.7171 75.0919 36.2165 76.3265 37.398C77.6072 38.625 79.1621 39.2157 80.9912 39.2157C82.8205 39.2157 84.4213 38.625 85.6558 37.398C86.9365 36.1713 87.531 34.6715 87.531 32.8994V29.4003H85.153V32.9449Z" fill="#576270"/>
<path d="M108.888 6.63442H103.766V0.272661H101.342V15.3591H103.766V8.86104H108.888V6.63442Z" fill="#576270"/>
<path d="M111.997 0.272661V15.3591H114.467V0.272661H111.997Z" fill="#576270"/>
<path d="M80.9912 9.40631C81.9057 9.04276 82.6375 8.49747 83.1864 7.67954C83.7351 6.90704 84.0095 5.99823 84.0095 4.99852C84.0095 3.63526 83.5064 2.49924 82.5461 1.59042C81.5857 0.681595 80.3508 0.227184 78.9332 0.227184H71.9819V2.4538H78.8876C79.6191 2.4538 80.2136 2.68101 80.7167 3.18087C81.2198 3.68073 81.4484 4.27145 81.4484 4.99852C81.4484 5.72555 81.2198 6.31631 80.7167 6.81616C80.2136 7.31602 79.6191 7.54323 78.8876 7.54323H71.9819V15.3591H74.4058V9.81526H78.4759L81.8602 15.3591H84.6041L80.9912 9.40631Z" fill="#576270"/>
<path d="M9.00918 32.9902C9.92383 32.6266 10.6555 32.0815 11.2043 31.2635C11.7531 30.4909 12.0275 29.5822 12.0275 28.5824C12.0275 27.2192 11.5244 26.0832 10.5641 25.1744C9.60371 24.2656 8.36895 23.8112 6.95124 23.8112H0V26.0378H6.95124C7.68296 26.0378 8.27747 26.265 8.78052 26.7649C9.28357 27.2647 9.51223 27.8555 9.51223 28.5824C9.51223 29.3095 9.28357 29.9002 8.78052 30.4001C8.27747 30.9 7.68296 31.1272 6.95124 31.1272H0V38.943H2.42379V33.3993H6.49395L9.8781 38.943H12.622L9.00918 32.9902Z" fill="#576270"/>
<path d="M66.3113 48.8037C65.3509 47.895 64.1161 47.4406 62.6984 47.4406H55.9758V49.6672H62.6984C63.4302 49.6672 64.0247 49.8944 64.5278 50.3943C65.0306 50.8942 65.2593 51.4849 65.2593 52.212C65.2593 52.9391 65.0306 53.5298 64.5278 54.0295C64.0247 54.5294 63.4302 54.7565 62.6984 54.7565H55.9758V62.5726H58.3997V57.0286H62.6984C64.1619 57.0286 65.3509 56.5743 66.3113 55.6655C67.2717 54.7565 67.7745 53.6206 67.7745 52.2573C67.7745 50.8486 67.3173 49.7127 66.3113 48.8037Z" fill="#576270"/>
<path d="M25.0611 30.2185H15.1372V32.445H25.0611V30.2185Z" fill="#576270"/>
<path d="M40.0152 30.2185L42.7136 23.8566H40.1525L37.5 30.2185H40.0152Z" fill="#576270"/>
<path d="M30.3659 23.8566H27.8051L34.2532 38.943H36.7227L30.3659 23.8566Z" fill="#576270"/>
<path d="M49.6649 53.1207L48.43 56.0291L51.2197 62.5726H53.7808L49.6649 53.1207Z" fill="#576270"/>
<path d="M47.6527 47.4862H45.2288L38.6434 62.5726H41.2045L47.6527 47.4862Z" fill="#576270"/>
<path d="M25.0611 36.7165H15.1372V38.943H25.0611V36.7165Z" fill="#576270"/>
<path d="M25.0611 23.8566H15.1372V26.0832H25.0611V23.8566Z" fill="#576270"/>
<path d="M36.5396 48.3494C35.305 47.6223 33.9329 47.2587 32.4239 47.2587C30.1828 47.2587 28.3079 47.9858 26.7988 49.4855C25.2896 50.985 24.5579 52.848 24.5579 55.0748C24.5579 57.3014 25.2896 59.1644 26.7988 60.6641C28.3079 62.1635 30.1828 62.8906 32.4239 62.8906V60.573C30.869 60.573 29.6341 60.0278 28.6279 58.9827C27.622 57.9376 27.0732 56.6198 27.0732 55.0748C27.0732 53.5298 27.5762 52.212 28.6279 51.1669C29.6341 50.1215 30.9146 49.5764 32.4239 49.5764C33.4298 49.5764 34.2988 49.8035 35.1219 50.2579C35.9451 50.7123 36.5854 51.3485 37.0427 52.1665L39.0549 50.7123C38.4148 49.7127 37.5916 48.9401 36.5396 48.3494Z" fill="#576270"/>
</svg>
