<svg width="143" height="57" viewBox="0 0 143 57" fill="none" xmlns="http://www.w3.org/2000/svg">
<path fill-rule="evenodd" clip-rule="evenodd" d="M18.4289 0V45.8032H0V11.1039L18.4289 0Z" fill="#576270"/>
<path fill-rule="evenodd" clip-rule="evenodd" d="M22.1168 57V10.9192H40.5457V45.8963L22.1168 57Z" fill="#576270"/>
<path d="M66.7624 16.2944H60.8655V45.9029H66.7624V16.2944Z" fill="#576270"/>
<path d="M66.7624 16.2944H60.8655V45.9029H66.7624V16.2944Z" fill="#576270"/>
<path d="M100.161 31.0046C100.161 39.1838 93.5101 45.8144 85.3065 45.8144C77.1029 45.8144 70.4526 39.1838 70.4526 31.0046C70.4526 22.8253 77.1029 16.1945 85.3065 16.1945C93.5101 16.1945 100.161 22.8253 100.161 31.0046ZM76.3941 31.0046C76.3941 35.9121 80.3844 39.8904 85.3065 39.8904C90.2288 39.8904 94.219 35.9121 94.219 31.0046C94.219 26.0969 90.2288 22.1185 85.3065 22.1185C80.3844 22.1185 76.3941 26.0969 76.3941 31.0046Z" fill="#576270"/>
<path d="M94.22 7.62093H100.162V45.9775H94.22V7.62093Z" fill="#576270"/>
<path d="M103.767 7.46316H109.709V45.8198H103.767V7.46316Z" fill="#576270"/>
<path d="M142.822 33.402C143.387 29.7718 142.595 26.0602 140.602 22.9796C138.608 19.8989 135.551 17.6665 132.018 16.7106C128.486 15.7547 124.726 16.1428 121.46 17.8006C118.195 19.4583 115.655 22.2686 114.327 25.6922C112.999 29.1158 112.977 32.9114 114.265 36.3502C115.553 39.789 118.061 42.6289 121.307 44.3246C124.552 46.0206 128.307 46.4526 131.851 45.5381C135.395 44.6237 138.477 42.4271 140.507 39.37L135.567 36.0629C134.349 37.8971 132.5 39.2152 130.374 39.7639C128.247 40.3124 125.994 40.0533 124.047 39.0358C122.099 38.0184 120.595 36.3143 119.822 34.2511C119.049 32.1877 119.062 29.9104 119.859 27.8563C120.656 25.802 122.18 24.116 124.139 23.1213C126.098 22.1267 128.354 21.8937 130.474 22.4673C132.593 23.0408 134.427 24.3802 135.624 26.2287C136.82 28.0771 137.295 30.304 136.956 32.4822L142.822 33.402Z" fill="#576270"/>
<path d="M116.173 28.2352H142.433L142.805 33.3946H116.173V28.2352Z" fill="#576270"/>
</svg>
