<svg width="276" height="47" viewBox="0 0 276 47" fill="none" xmlns="http://www.w3.org/2000/svg">
<path d="M180.454 47C176.172 47 172.998 46.171 170.928 44.513C169.134 43.1314 168.168 41.0549 168.168 38.8443H176.728C177.142 40.5023 177.832 41.4694 180.592 41.4694C183.628 41.4694 184.874 39.8114 184.874 36.077V32.761H184.736C183.632 35.5244 180.872 37.1863 177.97 36.91C170.928 36.91 167.34 32.9032 167.34 25.0238C167.202 21.7078 168.306 18.3879 170.514 15.9009C172.446 13.8284 175.21 12.7231 178.108 12.7231C180.868 12.4468 183.494 13.8284 184.874 16.3193H185.012V13.2797H193.434V35.2599C193.434 39.2667 192.468 42.1721 190.398 43.9683C188.186 46.0328 185.008 47 180.454 47ZM180.73 18.6603C177.97 18.6603 176.314 21.0091 176.314 25.0198C176.314 29.1648 177.832 31.3794 180.592 31.3794C182.938 31.3794 184.874 29.4451 184.874 27.0923V23.9145C184.874 20.5946 183.352 18.6603 180.73 18.6603ZM100.1 38.7061C97.0639 38.9824 94.024 38.1535 91.54 36.4955C89.884 35.1138 88.9181 33.0413 88.7801 30.8267H96.6499C96.7879 32.4847 97.8919 33.3137 99.9618 33.3137C101.894 33.3137 103.136 32.6229 103.136 31.2412C103.136 30.1359 102.446 29.5832 100.652 29.3069L96.6459 28.7542C91.8121 28.2016 89.1901 25.4383 89.1901 21.1512C89.1901 18.9405 90.0181 16.868 91.6741 15.3443C96.5079 12.0283 102.856 11.8901 107.69 14.9298C109.346 16.3114 110.312 18.3879 110.312 20.4604H102.58C102.58 19.0787 101.338 17.9734 99.9579 17.9734H99.8199C97.6119 17.9734 97.1979 18.9405 97.1979 19.9077C97.1979 20.8749 97.6119 21.5657 99.5439 21.842L103.826 22.3947C105.758 22.5328 107.552 23.2237 108.936 24.4672C110.316 25.8488 111.006 27.645 110.868 29.5832C111.144 35.248 106.866 38.7061 100.1 38.7061ZM75.2484 38.568C67.2405 38.568 62.6826 33.8664 62.6826 25.4343C62.5446 21.9762 63.7866 18.6603 65.9946 16.1733C68.4786 13.8245 71.7945 12.4428 75.2444 12.7152C79.5263 12.7152 82.8382 13.9587 84.9082 16.3114C86.9782 18.9366 88.0822 22.3947 87.9442 25.7107V27.645H71.5145C71.7905 31.2412 72.8945 32.8992 75.5165 32.8992C77.1724 33.1755 78.6904 32.0702 78.9664 30.5504H87.6642C87.1201 35.6665 82.8383 38.568 75.2484 38.568ZM75.2484 17.9694C72.9024 17.9694 71.7984 19.6274 71.5224 22.9473H78.9782V22.671C78.6983 19.4892 77.4563 17.9694 75.2484 17.9694ZM233.611 38.4298C230.989 38.568 228.363 37.6008 226.431 35.6665C224.637 33.594 223.671 30.8267 223.809 28.0634C223.671 25.3001 224.637 22.5328 226.431 20.5985C228.363 18.8024 230.989 17.697 233.611 17.8352C239.687 17.8352 243.413 21.7038 243.413 28.0634C243.413 34.419 239.545 38.4298 233.611 38.4298ZM233.611 21.842C230.437 21.842 229.747 25.2962 229.747 28.2016C229.747 32.4887 231.127 34.5611 233.611 34.5611C236.095 34.5611 237.479 32.3505 237.479 28.2016C237.479 24.0527 236.095 21.842 233.611 21.842ZM213.865 38.4298C211.243 38.568 208.618 37.6008 206.686 35.6665C204.892 33.594 204.064 30.8267 204.202 28.2016C204.202 21.842 207.928 17.9734 214.003 17.9734C219.527 17.9734 222.839 20.7367 222.977 25.4383H217.315C217.177 23.7803 216.487 21.842 213.999 21.842C210.55 21.842 210.136 25.8488 210.136 28.2016C210.136 32.4887 211.378 34.5611 213.999 34.5611C215.931 34.5611 217.449 33.0413 217.449 31.107V30.6925H222.973C222.973 32.9032 222.007 35.1138 220.351 36.4994C218.423 37.8771 216.073 38.4298 213.865 38.4298ZM121.083 38.2916C119.013 38.4298 116.802 37.8771 115.146 36.4955C113.49 34.8375 112.662 32.3465 112.8 29.9977V6.49773H121.359V13.2718H126.469V19.355H121.497V28.3397C121.497 30.9649 122.325 31.936 124.671 31.936C125.223 31.936 125.775 31.936 126.327 31.7978V38.0192C124.537 38.1535 122.881 38.2916 121.083 38.2916ZM263.706 37.8771H257.906V26.4054C258.044 25.3001 257.768 24.1948 257.354 23.2276C256.803 22.3986 255.837 21.9841 254.871 22.1223C252.525 22.1223 251.145 23.7803 251.145 26.5436V37.8771H245.345V18.3879H250.869V21.5657C252.111 19.2169 254.457 17.8352 256.944 17.9734C260.256 17.9734 262.192 19.355 263.02 21.9802H263.158C264.262 19.4932 266.746 17.8313 269.51 17.9734C273.93 17.9734 276 20.3222 276 25.1619V37.8811H270.2V26.4094C270.338 25.304 270.062 24.1987 269.648 23.2316C269.096 22.4026 268.13 21.9881 267.164 22.1262C264.818 22.1262 263.434 23.7842 263.434 26.5475L263.706 37.8771ZM149.113 37.8771H140.277V13.2718H148.837V17.2786H148.975C150.493 14.3771 153.671 12.577 156.983 12.8534C160.157 12.8534 162.368 13.6823 163.748 15.3403C165.128 17.4128 165.818 20.038 165.542 22.5289V37.8732H156.707V23.9106C156.845 22.6671 156.569 21.4236 156.017 20.3182C155.327 19.4893 154.361 18.9366 153.257 19.0748C150.635 19.0748 149.255 20.7327 149.255 24.0527L149.113 37.8771ZM21.2635 37.8771H12.4277V13.2718H20.9875V17.2786H21.1255C22.6435 14.3771 25.8214 12.577 29.1334 12.8534C32.3073 12.8534 34.5192 13.6823 35.8992 15.3403C37.2792 17.4128 37.9692 20.038 37.6932 22.5289V37.8732H28.8574V23.9106C28.9954 22.6671 28.7194 21.4236 28.1674 20.3182C27.4774 19.4893 26.5114 18.9366 25.4074 19.0748C22.7854 19.0748 21.4055 20.7327 21.4055 24.0527L21.2635 37.8771ZM202.408 37.8771H196.332V32.0702H202.408V37.8771ZM137.375 37.8771H128.539V13.2718H137.375V37.8771ZM55.0888 37.8771H45.977L37.2792 13.2718H46.115L49.2929 23.9145C50.1209 26.9541 50.8109 30.1359 50.8109 30.2741H50.9489C51.3629 28.2016 51.7769 26.1291 52.3289 24.0527L55.5028 13.41H64.0626L55.0888 37.8771ZM9.11181 37.8771H0V3.03965H9.11181V37.8771Z" fill="#576270"/>
<path d="M128.263 10.6427L137.375 8.98472V0L128.263 1.65799V10.6427Z" fill="#576270"/>
</svg>
