<svg width="156" height="52" viewBox="0 0 156 52" fill="none" xmlns="http://www.w3.org/2000/svg">
<path d="M132.659 48.286V51.5301H155.079V36.8988H151.812V48.286H132.659ZM132.659 0V3.24421H151.812V14.632H155.079V0H132.659ZM121.098 25.0976V17.5591H126.222C128.721 17.5591 129.617 18.3859 129.617 20.6447V21.9804C129.617 24.3023 128.752 25.0976 126.222 25.0976H121.098ZM129.232 26.4333C131.57 25.829 133.203 23.6656 133.203 21.0897C133.203 19.4676 132.563 18.004 131.346 16.8269C129.809 15.3634 127.758 14.632 125.101 14.632H117.894V36.8981H121.098V28.0238H125.902C128.368 28.0238 129.361 29.0416 129.361 31.5868V36.8988H132.628V32.0956C132.628 28.5966 131.795 27.2609 129.232 26.8791V26.4333ZM102.265 27.1647H112.13V24.2384H102.265V17.5583H113.091V14.632H98.9981V36.8981H113.571V33.9718H102.265V27.1647ZM91.5354 28.3418V29.8684C91.5354 33.0811 90.3501 34.1312 87.3719 34.1312H86.6674C83.6884 34.1312 82.2474 33.1765 82.2474 28.7552V22.7749C82.2474 18.322 83.7529 17.399 86.7311 17.399H87.3711C90.2861 17.399 91.2148 18.4806 91.2464 21.4707H94.7698C94.4495 17.081 91.503 14.3141 87.0829 14.3141C84.9373 14.3141 83.1436 14.9823 81.7986 16.2542C79.7807 18.1311 78.6599 21.3122 78.6599 25.7651C78.6599 30.0594 79.621 33.2404 81.6065 35.2121C82.9515 36.5162 84.8092 37.216 86.635 37.216C88.5564 37.216 90.3185 36.4523 91.2148 34.7986H91.6627V36.8981H94.6093V25.4156H85.9297V28.3418H91.5354ZM63.2874 17.5583H66.7788C70.078 17.5583 71.8717 18.3851 71.8717 22.8388V28.6913C71.8717 33.1442 70.078 33.9718 66.7788 33.9718H63.2874V17.5583ZM67.0666 36.8988C73.1843 36.8988 75.4576 32.2866 75.4576 25.7658C75.4576 19.1496 73.0238 14.6328 67.0021 14.6328H60.0838V36.8988H67.0666ZM44.6153 27.1647H54.4801V24.2384H44.6153V17.5583H55.4404V14.632H41.3476V36.8981H55.9212V33.9718H44.6153V27.1647ZM25.7187 14.632H22.4521V36.8981H37.1851V33.9718H25.7187V14.632ZM0 36.8988V51.5309H22.4195V48.286H3.26658V36.8988H0ZM0 0V14.632H3.26658V3.24421H22.4195V0H0Z" fill="#576270"/>
</svg>
