<svg width="239" height="68" viewBox="0 0 239 68" fill="none" xmlns="http://www.w3.org/2000/svg">
<g clip-path="url(#clip0_1500_20244)">
<path d="M105.94 19.0751C105.94 27.3678 105.94 35.6154 105.94 43.9773C105.807 43.7529 105.737 43.6361 105.668 43.5176C101.016 35.4836 96.3639 27.4512 91.72 19.413C91.5722 19.1569 91.4186 19.0442 91.1079 19.0459C89.0353 19.0609 86.9626 19.0534 84.8899 19.0551C84.7555 19.0551 84.621 19.0693 84.4766 19.0768C84.4766 29.7198 84.4766 40.3312 84.4766 50.9475C86.1609 50.9475 87.8094 50.9475 89.5012 50.9475C89.5012 42.5964 89.5012 34.2746 89.5012 25.9535C89.6582 26.0704 89.7468 26.2022 89.8261 26.3407C94.4583 34.4164 99.0913 42.4922 103.716 50.5721C103.888 50.8733 104.075 50.9909 104.431 50.9876C106.476 50.9684 108.521 50.9784 110.565 50.9784C110.725 50.9784 110.884 50.9784 111.04 50.9784C111.04 40.3003 111.04 29.6981 111.04 19.0751C109.344 19.0751 107.681 19.0751 105.94 19.0751Z" fill="#576270"/>
<path d="M159.468 31.3814C159.492 31.2963 159.513 31.2571 159.513 31.2179C159.516 29.9263 159.512 28.6356 159.523 27.344C159.524 27.0954 159.402 27.0611 159.196 27.0286C156.695 26.6298 154.186 26.3494 151.647 26.3586C149.942 26.3645 148.262 26.5213 146.632 27.047C143.352 28.1041 141.597 30.3844 141.586 33.5833C141.581 35.0426 141.924 36.3851 142.865 37.5365C143.649 38.4977 144.678 39.1159 145.798 39.6048C147.684 40.4275 149.698 40.7755 151.693 41.1993C152.824 41.4388 153.939 41.74 154.85 42.5117C155.876 43.3803 155.944 44.9147 154.951 45.8166C154.58 46.1537 154.118 46.4674 153.644 46.5968C152.646 46.8696 151.621 47.1015 150.593 47.1925C148.387 47.3877 146.215 47.0289 144.058 46.5859C143.287 46.4274 142.516 46.2672 141.722 46.1028C141.712 46.2622 141.7 46.3715 141.7 46.4799C141.698 47.7156 141.709 48.9513 141.691 50.187C141.687 50.4924 141.787 50.5891 142.083 50.6267C144.01 50.8712 145.93 51.1949 147.862 51.3751C150.041 51.5787 152.224 51.5161 154.374 51.0255C155.934 50.6692 157.403 50.1019 158.644 49.0581C160.657 47.366 161.276 45.1491 160.996 42.6269C160.795 40.8213 159.893 39.4129 158.364 38.4401C157.76 38.0555 157.114 37.6817 156.435 37.4789C154.656 36.9491 152.85 36.5094 151.051 36.048C149.976 35.7727 148.883 35.5524 147.919 34.9617C147.445 34.6713 147.064 34.2967 146.931 33.7301C146.711 32.8023 147.106 31.9346 148 31.414C148.963 30.8541 150.034 30.6873 151.119 30.6155C153.338 30.4687 155.532 30.7123 157.715 31.0902C158.298 31.1912 158.884 31.2847 159.468 31.3814Z" fill="#576270"/>
<path d="M105.941 19.0751C107.682 19.0751 109.344 19.0751 111.04 19.0751C111.04 29.6982 111.04 40.3003 111.04 50.9784C110.884 50.9784 110.725 50.9784 110.565 50.9784C108.52 50.9784 106.475 50.9684 104.431 50.9876C104.074 50.9909 103.888 50.8733 103.716 50.5721C99.0921 42.4913 94.4591 34.4164 89.8261 26.3407C89.7468 26.203 89.6582 26.0704 89.5012 25.9536C89.5012 34.2746 89.5012 42.5965 89.5012 50.9475C87.8094 50.9475 86.1618 50.9475 84.4766 50.9475C84.4766 40.3312 84.4766 29.719 84.4766 19.0768C84.621 19.0685 84.7555 19.0551 84.8899 19.0551C86.9626 19.0534 89.0353 19.0618 91.1079 19.0459C91.4186 19.0434 91.5714 19.1561 91.72 19.4131C96.3648 27.4504 101.017 35.4836 105.668 43.5176C105.736 43.6361 105.807 43.7529 105.94 43.9773C105.941 35.6146 105.941 27.3678 105.941 19.0751Z" fill="#576270"/>
<path d="M159.468 31.3815C158.884 31.2848 158.298 31.1921 157.715 31.0912C155.532 30.7132 153.338 30.4696 151.119 30.6164C150.033 30.6882 148.962 30.8551 148 31.4149C147.106 31.9356 146.711 32.8033 146.931 33.7311C147.065 34.2985 147.446 34.6722 147.919 34.9626C148.883 35.5525 149.975 35.7728 151.051 36.0489C152.85 36.5103 154.656 36.95 156.435 37.4799C157.114 37.6826 157.76 38.0564 158.364 38.441C159.893 39.4147 160.795 40.8223 160.996 42.6278C161.276 45.1493 160.657 47.3661 158.644 49.059C157.403 50.1028 155.934 50.6702 154.374 51.0265C152.224 51.5171 150.041 51.5796 147.862 51.376C145.929 51.1958 144.01 50.8721 142.083 50.6276C141.788 50.5901 141.687 50.4925 141.691 50.1879C141.709 48.9522 141.698 47.7166 141.7 46.4809C141.7 46.3716 141.712 46.2623 141.722 46.1038C142.517 46.2681 143.287 46.4292 144.058 46.5868C146.214 47.0299 148.386 47.3887 150.593 47.1934C151.621 47.1025 152.647 46.8705 153.644 46.5977C154.118 46.4684 154.58 46.1547 154.951 45.8176C155.944 44.9148 155.876 43.3804 154.85 42.5127C153.939 41.7409 152.823 41.4397 151.693 41.2002C149.698 40.7772 147.684 40.4293 145.798 39.6058C144.678 39.1169 143.649 38.4994 142.865 37.5374C141.924 36.386 141.581 35.0435 141.586 33.5842C141.597 30.3845 143.352 28.105 146.632 27.0479C148.262 26.5223 149.942 26.3654 151.647 26.3596C154.185 26.3512 156.695 26.6307 159.196 27.0295C159.402 27.0621 159.525 27.0971 159.523 27.3449C159.512 28.6357 159.516 29.9273 159.513 31.2188C159.513 31.2564 159.492 31.2964 159.468 31.3815Z" fill="#576270"/>
<path d="M180.957 26.7004C180.957 23.4965 180.957 20.3251 180.957 17.1387C182.762 17.1387 184.512 17.1387 186.329 17.1387C186.329 17.3172 186.329 17.4908 186.329 17.6652C186.329 28.5385 186.326 39.411 186.338 50.2843C186.339 50.729 186.266 50.9167 185.763 50.9893C182.996 51.3865 180.223 51.7294 177.424 51.7553C175.14 51.7761 172.906 51.4449 170.797 50.5129C167.715 49.1496 165.595 46.8868 164.628 43.6503C163.579 40.141 163.742 36.6434 165.145 33.2618C166.677 29.5714 169.543 27.4647 173.432 26.7179C175.568 26.3074 177.723 26.42 179.875 26.5986C180.217 26.6261 180.559 26.6628 180.957 26.7004ZM180.955 46.9477C180.955 41.7847 180.955 36.6225 180.956 31.4596C180.956 31.2201 180.99 30.9998 180.638 30.9523C178.967 30.7278 177.297 30.5543 175.613 30.7779C172.946 31.1317 171.034 32.4675 170.151 35.069C169.501 36.9822 169.412 38.9571 169.675 40.9462C169.846 42.2394 170.273 43.4526 171.031 44.5289C172.362 46.4196 174.249 47.3674 176.503 47.5159C177.963 47.6127 179.438 47.4909 180.955 47.4658C180.955 47.1955 180.955 47.0712 180.955 46.9477Z" fill="#576270"/>
<path d="M233.436 61.8097C233.436 58.3004 233.436 54.8495 233.436 51.3711C232.777 51.4387 232.16 51.5146 231.542 51.5638C228.852 51.7791 226.212 51.568 223.653 50.6494C220.783 49.6198 218.797 47.6507 217.674 44.864C216.154 41.0952 216.091 37.248 217.511 33.445C218.849 29.8631 221.587 27.8339 225.247 26.9637C227.694 26.3822 230.186 26.3997 232.675 26.4923C234.662 26.5665 236.647 26.6934 238.633 26.7977C238.714 26.8018 238.794 26.8152 238.928 26.8294C238.928 26.9912 238.928 27.1381 238.928 27.2858C238.928 37.8412 238.926 48.3966 238.937 58.9521C238.937 59.3017 238.821 59.461 238.514 59.5937C236.959 60.2637 235.413 60.9545 233.864 61.637C233.74 61.6913 233.615 61.738 233.436 61.8097ZM233.507 46.5744C233.507 41.6867 233.507 36.7991 233.504 31.9114C233.504 31.5552 233.588 31.1146 233.414 30.871C233.288 30.6958 232.795 30.7842 232.466 30.7542C232.397 30.7475 232.328 30.7358 232.259 30.7325C230.8 30.6566 229.342 30.5873 227.893 30.8601C225.065 31.3916 223.15 32.9619 222.42 35.787C221.854 37.9764 221.891 40.1907 222.484 42.3717C223.226 45.0984 225.002 46.7429 227.809 47.226C229.696 47.5506 231.577 47.3437 233.507 47.1142C233.507 46.904 233.507 46.7396 233.507 46.5744Z" fill="#576270"/>
<path d="M131.591 35.8559C131.595 34.7445 131.652 33.6657 131.367 32.6069C131.127 31.7183 130.533 31.1293 129.661 30.9607C128.549 30.7455 127.413 30.5994 126.282 30.5452C123.599 30.4176 120.963 30.8489 118.335 31.3245C117.953 31.3938 117.571 31.4563 117.164 31.5256C117.164 30.1088 117.164 28.7105 117.164 27.2545C118.012 27.1043 118.867 26.9366 119.727 26.8023C122.388 26.3885 125.068 26.2983 127.753 26.3859C129.268 26.4352 130.772 26.5779 132.237 27.0184C134.921 27.8252 136.4 29.6566 136.819 32.375C136.932 33.1125 136.984 33.8668 136.987 34.6135C137.001 39.8892 136.994 45.1656 136.994 50.4413C136.994 50.5781 136.994 50.7149 136.994 50.8893C136.335 50.9627 135.704 51.0428 135.07 51.1004C131.827 51.3974 128.576 51.5001 125.32 51.4508C123.592 51.425 121.882 51.2723 120.226 50.7249C117.533 49.8347 116.054 47.9457 115.658 45.1823C115.474 43.8991 115.467 42.6083 115.769 41.3351C116.286 39.1516 117.663 37.7157 119.697 36.8579C121.426 36.1287 123.252 35.8475 125.105 35.8083C127.147 35.7649 129.19 35.835 131.234 35.8559C131.332 35.8567 131.429 35.8559 131.591 35.8559ZM131.905 39.6238C130.068 39.6113 128.251 39.5763 126.435 39.5946C125.238 39.6063 124.052 39.7615 122.921 40.1929C121.745 40.6418 120.961 41.4444 120.759 42.7143C120.688 43.1615 120.692 43.6287 120.722 44.0826C120.806 45.3534 121.384 46.3538 122.544 46.9111C123.159 47.2073 123.84 47.4217 124.515 47.5327C126.962 47.934 129.418 47.6996 131.905 47.5385C131.905 44.897 131.905 42.3071 131.905 39.6238Z" fill="#576270"/>
<path d="M206.795 35.855C206.718 34.8363 206.682 33.8668 206.559 32.9081C206.425 31.8651 205.788 31.1576 204.77 30.9549C203.673 30.7363 202.549 30.5986 201.431 30.546C198.748 30.4184 196.111 30.8497 193.482 31.3228C193.1 31.3912 192.718 31.4555 192.311 31.5256C192.298 31.4188 192.279 31.3278 192.279 31.236C192.278 30.0279 192.281 28.8197 192.275 27.6116C192.274 27.3972 192.29 27.2603 192.558 27.2061C196.244 26.4535 199.966 26.184 203.716 26.4535C204.941 26.542 206.179 26.7222 207.362 27.0417C210.084 27.7776 211.555 29.6716 211.959 32.4142C212.067 33.1526 212.12 33.906 212.122 34.6536C212.135 39.9175 212.129 45.1806 212.129 50.4446C212.129 50.5814 212.129 50.7183 212.129 50.8918C211.469 50.9644 210.838 51.0445 210.204 51.1029C206.96 51.3999 203.708 51.5017 200.451 51.4525C198.708 51.4258 196.984 51.2723 195.317 50.7107C192.625 49.8046 191.172 47.8948 190.789 45.1322C190.615 43.8749 190.609 42.6116 190.9 41.3651C191.452 39.0072 192.987 37.5454 195.197 36.7128C196.828 36.0978 198.533 35.8383 200.261 35.8075C202.289 35.7716 204.319 35.835 206.349 35.855C206.456 35.8559 206.566 35.855 206.795 35.855ZM203.503 39.5471C202.85 39.5329 202.197 39.5646 201.544 39.5904C200.361 39.6363 199.19 39.7623 198.073 40.1878C197.241 40.5041 196.561 40.9988 196.165 41.8257C195.089 44.0759 196.178 46.6349 198.58 47.2724C199.654 47.5577 200.795 47.682 201.909 47.7087C203.61 47.7488 205.316 47.6403 207.038 47.5953C207.038 44.9136 207.038 42.3246 207.038 39.6781C205.835 39.6305 204.669 39.5729 203.503 39.5471Z" fill="#576270"/>
<path d="M41.4292 47.9921H41.4275C41.025 49.2487 39.8467 50.159 38.4555 50.159C37.1327 50.159 36.0037 49.3363 35.5494 48.1757H35.5477L31.6395 37.5819L38.296 19.9361C38.7118 18.7029 39.8776 17.8135 41.253 17.8135C42.6901 17.8135 43.8993 18.7839 44.2618 20.1046L47.9303 29.9676L41.4292 47.9921ZM20.6432 17.0959C19.3839 17.0876 18.1922 17.8477 17.7112 19.0909L0 68H19.1025L36.8137 19.0909C37.1435 18.2373 37.8083 17.6116 38.6008 17.3054C38.9682 17.1635 39.3632 17.0901 39.7649 17.0951L20.6432 17.0959ZM58.889 50.904C60.1483 50.9124 61.34 50.1523 61.821 48.9091L79.5314 0H60.4298L42.7185 48.9091C42.3887 49.7626 41.724 50.3884 40.9315 50.6946C40.564 50.8365 40.169 50.9099 39.7674 50.9049L58.889 50.904Z" fill="#576270"/>
</g>
<defs>
<clipPath id="clip0_1500_20244">
<rect width="239" height="68" fill="white"/>
</clipPath>
</defs>
</svg>
