<svg width="111" height="86" viewBox="0 0 111 86" fill="none" xmlns="http://www.w3.org/2000/svg">
<path d="M82.3542 53.7633L77.0195 48.5148V0.071673H82.3542V53.7633Z" fill="#576270"/>
<path d="M72.5476 43.5242L67.2129 38.2754V0.071673H72.5476V43.5242Z" fill="#576270"/>
<path d="M62.909 33.8871L57.5742 28.6383V0.071673H62.909V33.8871Z" fill="#576270"/>
<path d="M29.2715 0L34.6063 5.2487V53.6916H29.2715V0Z" fill="#576270"/>
<path d="M39.082 10.2401L44.4168 15.4888V53.6926H39.082V10.2401Z" fill="#576270"/>
<path d="M48.7168 19.8754L54.0514 25.124V53.6908H48.7168V19.8754Z" fill="#576270"/>
<path d="M0 85.098H3.63113V77.1095C3.63113 75.1729 4.72047 73.1757 7.02019 73.1757C9.35017 73.1757 9.74353 75.3242 9.74353 77.049V85.098H13.3747V76.0201C13.3747 73.0244 11.8012 70.1498 8.01875 70.1498C5.84007 70.1498 4.14554 71.451 3.51009 72.9034H3.44957V70.5734H0V85.098Z" fill="#576270"/>
<path d="M20.4571 77.775C20.4571 75.5056 21.7884 73.1151 24.6631 73.1151C27.5378 73.1151 28.8691 75.5056 28.8691 77.775C28.8691 80.0445 27.5378 82.4956 24.6631 82.4956C21.7884 82.4956 20.4571 80.0445 20.4571 77.775ZM16.7654 77.775C16.7654 82.3443 20.2756 85.5214 24.6631 85.5214C29.0508 85.5214 32.5609 82.3443 32.5609 77.775C32.5609 73.1756 29.0508 70.1496 24.6631 70.1496C20.2756 70.1496 16.7654 73.1756 16.7654 77.775Z" fill="#576270"/>
<path d="M36.5339 73.4785V80.2566C36.5339 83.0406 37.4115 85.4008 41.2544 85.4008C42.0714 85.4008 43.0396 85.2495 43.6752 85.0075L43.5541 82.163C43.1002 82.3748 42.495 82.4656 42.0109 82.4656C40.4072 82.4656 40.1045 81.5276 40.1045 80.2264V73.4785H43.7357V70.5736H40.1045V66.3676H36.5339V70.5736H33.9922V73.4785H36.5339Z" fill="#576270"/>
<path d="M45.3789 65.642C45.3789 66.8221 46.3471 67.8206 47.6786 67.8206C49.0099 67.8206 50.0388 66.8826 50.0388 65.642C50.0388 64.4013 49.0099 63.4633 47.6786 63.4633C46.3471 63.4633 45.3789 64.4618 45.3789 65.642ZM45.8934 85.0988H49.5244V70.5742H45.8934V85.0988Z" fill="#576270"/>
<path d="M56.7736 77.775C56.7736 75.5056 58.1049 73.1151 60.9796 73.1151C63.8541 73.1151 65.1856 75.5056 65.1856 77.775C65.1856 80.0445 63.8541 82.4956 60.9796 82.4956C58.1049 82.4956 56.7736 80.0445 56.7736 77.775ZM53.0818 77.775C53.0818 82.3443 56.5919 85.5214 60.9796 85.5214C65.3671 85.5214 68.8772 82.3443 68.8772 77.775C68.8772 73.1756 65.3671 70.1496 60.9796 70.1496C56.5919 70.1496 53.0818 73.1756 53.0818 77.775Z" fill="#576270"/>
<path d="M72.3984 85.098H76.0294V77.1095C76.0294 75.1729 77.1189 73.1757 79.4186 73.1757C81.7485 73.1757 82.142 75.3242 82.142 77.049V85.098H85.773V76.0201C85.773 73.0244 84.1996 70.1498 80.4171 70.1498C78.2384 70.1498 76.5439 71.451 75.9085 72.9034H75.848V70.5734H72.3984V85.098Z" fill="#576270"/>
<path d="M98.9683 78.9854C98.9683 81.2852 97.6671 82.7072 95.1556 82.7072C93.9452 82.7072 92.6137 82.2533 92.6137 80.8918C92.6137 78.7433 95.8515 78.471 98.1512 78.471H98.9683V78.9854ZM99.0288 85.0978H102.418V76.262C102.418 73.3571 101.117 70.1496 95.9423 70.1496C93.7333 70.1496 91.4638 70.9061 89.7995 72.4494L91.6757 74.6583C92.6137 73.7203 94.0965 72.994 95.6397 72.994C97.4553 72.994 98.9683 73.8413 98.9683 75.6569V76.02C94.4596 76.02 88.9827 76.6252 88.9827 80.9522C88.9827 84.3414 92.1296 85.4608 94.4293 85.4608C96.4869 85.4608 98.2118 84.5532 98.9379 83.2521H99.0288V85.0978Z" fill="#576270"/>
<path d="M106.709 85.0983H110.34V62.2221H106.709V85.0983Z" fill="#576270"/>
</svg>
