<svg width="304" height="304" viewBox="0 0 304 304" fill="none" xmlns="http://www.w3.org/2000/svg">
<path d="M101.089 253.244C109.677 269.795 104.014 290.612 88.4422 299.739C72.87 308.866 53.2848 302.848 44.6975 286.296C36.1101 269.745 41.7725 248.929 57.3447 239.802C72.917 230.674 92.5021 236.693 101.089 253.244Z" fill="url(#paint0_radial_2870_22974)"/>
<path d="M253.409 141.105C245.923 127.324 250.365 109.702 263.332 101.745C276.298 93.7883 292.878 98.5102 300.364 112.291C307.85 126.073 303.407 143.695 290.441 151.652C277.475 159.608 260.895 154.886 253.409 141.105Z" fill="url(#paint1_radial_2870_22974)"/>
<path d="M65.3397 1.91636e-06C57.5956 0.00413103 51.3208 6.67988 51.3247 14.9107C51.3286 23.1415 57.6096 29.8106 65.3538 29.8064C73.0979 29.8023 79.3727 23.1266 79.3688 14.8957C79.3649 6.66493 73.0839 -0.0041272 65.3397 1.91636e-06Z" fill="url(#paint2_radial_2870_22974)"/>
<path d="M262.369 103.545H5.83154V69.7377L134.181 5.94556L262.369 69.7377V103.545Z" fill="url(#paint3_linear_2870_22974)"/>
<path d="M116.61 201.153H145.762V103.554H116.61V201.153Z" fill="url(#paint4_linear_2870_22974)"/>
<path d="M204.063 201.153H233.215V103.554H204.063V201.153Z" fill="url(#paint5_linear_2870_22974)"/>
<path d="M29.1524 201.153H58.3044V103.554H29.1523L29.1524 201.153Z" fill="url(#paint6_linear_2870_22974)"/>
<path d="M262.368 201.163H0V231.662H262.368V201.163Z" fill="url(#paint7_linear_2870_22974)"/>
<defs>
<radialGradient id="paint0_radial_2870_22974" cx="0" cy="0" r="1" gradientUnits="userSpaceOnUse" gradientTransform="translate(83.6866 245.933) rotate(115.554) scale(49.2434 47.4487)">
<stop stop-color="#576270"/>
<stop offset="0.473958" stop-color="#23B3E5"/>
<stop offset="1" stop-color="white" stop-opacity="0"/>
</radialGradient>
<radialGradient id="paint1_radial_2870_22974" cx="0" cy="0" r="1" gradientUnits="userSpaceOnUse" gradientTransform="translate(268.172 146.953) rotate(-65.5294) scale(41.4975 39.9118)">
<stop stop-color="#576270"/>
<stop offset="0.473958" stop-color="#23B3E5"/>
<stop offset="1" stop-color="white" stop-opacity="0"/>
</radialGradient>
<radialGradient id="paint2_radial_2870_22974" cx="0" cy="0" r="1" gradientUnits="userSpaceOnUse" gradientTransform="translate(71.625 5.51276) rotate(122.554) scale(21.3051 20.7978)">
<stop stop-color="#576270"/>
<stop offset="0.473958" stop-color="#23B3E5"/>
<stop offset="1" stop-color="white" stop-opacity="0"/>
</radialGradient>
<linearGradient id="paint3_linear_2870_22974" x1="43.7289" y1="12.0428" x2="153.415" y2="116.884" gradientUnits="userSpaceOnUse">
<stop stop-color="#23B3E5" stop-opacity="0"/>
<stop offset="1" stop-color="#23B3E5"/>
</linearGradient>
<linearGradient id="paint4_linear_2870_22974" x1="98.5038" y1="93.2836" x2="159.136" y2="194.01" gradientUnits="userSpaceOnUse">
<stop stop-color="#23B3E5" stop-opacity="0"/>
<stop offset="1" stop-color="#23B3E5"/>
</linearGradient>
<linearGradient id="paint5_linear_2870_22974" x1="209.893" y1="219.453" x2="241.956" y2="104.365" gradientUnits="userSpaceOnUse">
<stop stop-color="#BDDBBF" stop-opacity="0"/>
<stop offset="0.0001" stop-color="#23B3E5" stop-opacity="0"/>
<stop offset="1" stop-color="#23B3E5"/>
</linearGradient>
<linearGradient id="paint6_linear_2870_22974" x1="34.9822" y1="219.453" x2="67.0448" y2="104.365" gradientUnits="userSpaceOnUse">
<stop stop-color="#23B3E5" stop-opacity="0"/>
<stop offset="1" stop-color="#23B3E5"/>
</linearGradient>
<linearGradient id="paint7_linear_2870_22974" x1="235.606" y1="253.59" x2="96.165" y2="152.336" gradientUnits="userSpaceOnUse">
<stop stop-color="#23B3E5" stop-opacity="0"/>
<stop offset="1" stop-color="#23B3E5"/>
</linearGradient>
</defs>
</svg>
