<svg width="90" height="93" viewBox="0 0 90 93" fill="none" xmlns="http://www.w3.org/2000/svg">
<path d="M0 69.9718H18.0202V73.8588H11.1336V92.2799H6.89652V73.8588H0V69.9718Z" fill="#576270"/>
<path d="M26.1305 80.0091C25.7068 79.8585 25.2596 79.7833 24.8095 79.787C24.2469 79.7832 23.691 79.9073 23.1845 80.1498C22.7059 80.3811 22.2879 80.719 21.9632 81.137C21.621 81.5853 21.3674 82.0936 21.2155 82.635C21.0415 83.2358 20.9575 83.8586 20.9662 84.4836V92.2923H16.8936V76.4725H20.9488V78.9898C21.3536 78.1326 21.9668 77.3881 22.7333 76.8229C23.5093 76.2812 24.4411 76.0016 25.3903 76.0258C25.8584 76.0222 26.3245 76.0871 26.7736 76.2183L26.1305 80.0091Z" fill="#576270"/>
<path d="M53.7091 92.2799H49.9231L43.4428 76.4725H47.7572L51.8124 87.181L55.8676 76.4725H60.1794L53.7091 92.2799Z" fill="#576270"/>
<path d="M88.3712 80.0091C87.9476 79.8583 87.5003 79.7831 87.0502 79.787C86.4884 79.7832 85.9333 79.9073 85.4276 80.1498C84.9479 80.3804 84.529 80.7184 84.2038 81.137C83.8617 81.5853 83.608 82.0936 83.4561 82.635C83.2822 83.2358 83.1982 83.8586 83.2069 84.4836V92.2923H79.1343V76.4725H83.1894V78.9898C83.5944 78.1319 84.2085 77.3873 84.9765 76.8229C85.7516 76.2812 86.6825 76.0016 87.6309 76.0258C88.0991 76.0222 88.5652 76.0871 89.0142 76.2183L88.3712 80.0091Z" fill="#576270"/>
<path d="M39.4226 86.7886C39.0559 87.4467 38.5642 88.0283 37.9745 88.5014C37.2866 89.0213 36.3851 89.2813 35.2702 89.2813C34.1716 89.3189 33.1005 88.9362 32.2793 88.2127C31.4651 87.4614 30.9698 86.4319 30.8935 85.3325H43.1936V83.9307C43.2045 82.8469 43.0083 81.7709 42.6154 80.7593C42.2514 79.8278 41.7041 78.9771 41.0053 78.2568C40.3062 77.5489 39.4682 76.9904 38.5427 76.6156C37.5466 76.2149 36.4799 76.0144 35.4048 76.0257C34.2863 76.0182 33.1769 76.2243 32.1372 76.6329C31.1358 77.0205 30.2234 77.6038 29.4543 78.3479C28.6853 79.092 28.0753 79.9818 27.6608 80.9642C26.7802 83.1544 26.7802 85.5955 27.6608 87.7857C28.0757 88.7693 28.6821 89.6625 29.4454 90.4141C30.2059 91.1584 31.1072 91.7466 32.0978 92.1451C33.0884 92.5437 34.1487 92.7446 35.2179 92.7365C37.0456 92.7365 38.5643 92.3539 39.774 91.5889C40.8395 90.8869 41.715 89.937 42.3237 88.8223L39.4226 86.7886ZM32.4887 80.0412C33.2675 79.3981 34.2565 79.0585 35.2702 79.086C36.4333 79.086 37.3721 79.383 38.0866 79.977C38.8196 80.5977 39.3048 81.4571 39.455 82.4006H30.8935C31.1852 81.4787 31.739 80.6595 32.4887 80.0412Z" fill="#576270"/>
<path d="M72.7936 86.7886C72.4278 87.4465 71.9369 88.0282 71.348 88.5014C70.6601 89.0213 69.7586 89.2813 68.6437 89.2813C67.545 89.3194 66.4737 88.9367 65.6528 88.2127C64.8386 87.4614 64.3433 86.4319 64.267 85.3325H76.5596V83.9307C76.5717 82.8468 76.3755 81.7706 75.9814 80.7593C75.6182 79.8279 75.0718 78.9773 74.3738 78.2568C73.6747 77.5489 72.8367 76.9904 71.9113 76.6156C70.9151 76.2149 69.8484 76.0144 68.7733 76.0257C67.6548 76.0182 66.5454 76.2243 65.5057 76.6329C64.5052 77.0211 63.5938 77.6046 62.8256 78.3487C62.0574 79.0928 61.4483 79.9822 61.0343 80.9642C60.1536 83.1544 60.1536 85.5955 61.0343 87.7857C61.4492 88.7693 62.0556 89.6625 62.8189 90.4141C63.5674 91.1453 64.4531 91.7246 65.426 92.1195C66.4253 92.5301 67.497 92.7398 68.5789 92.7365C70.4067 92.7365 71.9245 92.3539 73.1325 91.5889C74.1994 90.8877 75.0758 89.9376 75.6848 88.8223L72.7936 86.7886ZM65.8746 80.0412C66.6533 79.3979 67.6424 79.0583 68.6562 79.086C69.8193 79.086 70.7581 79.383 71.4726 79.977C72.2056 80.5977 72.6908 81.4571 72.8409 82.4006H64.267C64.5622 81.4772 65.1204 80.6579 65.8746 80.0412Z" fill="#576270"/>
<path d="M28.8636 30.1616L13.7562 33.907V15.084H28.8636V30.1616Z" fill="#576270"/>
<path d="M74.1537 30.1617L59.0399 33.9071V0H74.1537V30.1617Z" fill="#576270"/>
<path d="M51.5087 56.5332L36.3949 60.2785V7.542H51.5087V56.5332Z" fill="#576270"/>
</svg>
