<svg width="143" height="135" viewBox="0 0 143 135" fill="none" xmlns="http://www.w3.org/2000/svg">
<path d="M57.8013 25.7455L38 36.6545V65.0182C38 70.6909 42.133 96 68.9934 96C95.8543 96 102.857 75.3455 103 65.0182V0L80.1854 12.6545V65.0182C80.1854 67.2 78.4636 74.6182 68.9934 74.6182C61.4172 74.6182 58.3753 68.2182 57.8013 65.0182V25.7455Z" fill="#576270"/>
<path d="M124 2L18 81L124 38.0275V2Z" fill="#576270"/>
<path d="M5.7806 115.806C9.33103 115.806 11.6326 114.062 11.6326 110.081V103.247H8.11782V110.187C8.11782 111.913 7.20791 112.723 5.81628 112.723C4.42466 112.723 3.51475 111.878 3.51475 110.099V103.247H0V110.169C0 114.027 2.23017 115.806 5.7806 115.806Z" fill="#576270"/>
<path d="M14.3946 115.577H17.8202V108.813L23.1547 115.577H26.1878V103.247H22.7622V109.764L17.6239 103.247H14.3946V115.577Z" fill="#576270"/>
<path d="M34.0229 115.788C37.0559 115.788 39.072 114.291 39.072 111.772V111.737C39.072 109.429 37.2879 108.513 34.4154 107.897C32.6848 107.509 32.2566 107.263 32.2566 106.699V106.664C32.2566 106.224 32.667 105.871 33.5055 105.871C34.6117 105.871 35.8606 106.294 37.0024 107.087L38.733 104.673C37.3771 103.599 35.7178 103.035 33.5947 103.035C30.5974 103.035 28.7597 104.691 28.7597 106.981V107.016C28.7597 109.553 30.8115 110.293 33.4698 110.892C35.1648 111.279 35.5751 111.561 35.5751 112.072V112.107C35.5751 112.635 35.0755 112.952 34.1478 112.952C32.7026 112.952 31.3289 112.442 30.0978 111.473L28.1709 113.745C29.7053 115.101 31.8106 115.788 34.0229 115.788Z" fill="#576270"/>
<path d="M44.1713 115.577H47.6325V106.241H51.3792V103.247H40.4246V106.241H44.1713V115.577Z" fill="#576270"/>
<path d="M59.3522 115.824C63.2059 115.824 66.0962 112.952 66.0962 109.412V109.377C66.0962 105.836 63.2416 103 59.3879 103C55.5341 103 52.6438 105.871 52.6438 109.412V109.447C52.6438 112.988 55.4985 115.824 59.3522 115.824ZM59.3879 112.741C57.4967 112.741 56.1943 111.191 56.1943 109.412V109.377C56.1943 107.598 57.461 106.083 59.3522 106.083C61.2612 106.083 62.5636 107.633 62.5636 109.412V109.447C62.5636 111.226 61.2969 112.741 59.3879 112.741Z" fill="#576270"/>
<path d="M68.6128 115.577H72.0741V112.054H73.7868C76.8912 112.054 79.1571 110.522 79.1571 107.615V107.58C79.1571 104.85 77.1232 103.247 73.9652 103.247H68.6128V115.577ZM72.0741 109.377V106.118H73.6976C74.9465 106.118 75.6959 106.682 75.6959 107.738V107.774C75.6959 108.742 74.9465 109.377 73.7155 109.377H72.0741Z" fill="#576270"/>
<path d="M81.3311 115.577H84.7923V112.054H86.5051C89.6095 112.054 91.8753 110.522 91.8753 107.615V107.58C91.8753 104.85 89.8414 103.247 86.6835 103.247H81.3311V115.577ZM84.7923 109.377V106.118H86.4159C87.6647 106.118 88.4141 106.682 88.4141 107.738V107.774C88.4141 108.742 87.6647 109.377 86.4337 109.377H84.7923Z" fill="#576270"/>
<path d="M91.7957 115.577H95.4354L96.3274 113.375H101.145L102.055 115.577H105.766L100.449 103.159H97.1124L91.7957 115.577ZM97.3444 110.715L98.7539 107.21L100.145 110.715H97.3444Z" fill="#576270"/>
<path d="M107.691 115.577H114.132C117.111 115.577 118.86 114.291 118.86 112.177V112.142C118.86 110.469 117.896 109.623 116.38 109.13C117.486 108.654 118.307 107.809 118.307 106.382V106.347C118.307 105.501 118.003 104.85 117.504 104.356C116.772 103.634 115.666 103.247 114.096 103.247H107.691V115.577ZM111.063 108.161V105.995H113.311C114.346 105.995 114.881 106.382 114.881 107.051V107.087C114.881 107.809 114.292 108.161 113.24 108.161H111.063ZM111.063 112.829V110.557H113.704C114.863 110.557 115.398 110.997 115.398 111.667V111.702C115.398 112.424 114.792 112.829 113.739 112.829H111.063Z" fill="#576270"/>
<path d="M121.158 115.577H130.668V112.583H124.62V103.247H121.158V115.577Z" fill="#576270"/>
<path d="M132.866 115.577H143V112.671H136.292V110.715H142.286V108.02H136.292V106.153H142.911V103.247H132.866V115.577Z" fill="#576270"/>
<path d="M25.5099 134.753H30.2557C34.7518 134.753 37.3744 132.111 37.3744 128.553V128.518C37.3744 124.959 34.7874 122.423 30.3271 122.423H25.5099V134.753ZM28.9712 131.724V125.453H30.3806C32.4502 125.453 33.824 126.598 33.824 128.571V128.606C33.824 130.596 32.4502 131.724 30.3806 131.724H28.9712Z" fill="#576270"/>
<path d="M46.1461 135C49.9998 135 52.8901 132.129 52.8901 128.588V128.553C52.8901 125.012 50.0355 122.176 46.1818 122.176C42.3281 122.176 39.4378 125.048 39.4378 128.588V128.623C39.4378 132.164 42.2924 135 46.1461 135ZM46.1818 131.917C44.2906 131.917 42.9882 130.367 42.9882 128.588V128.553C42.9882 126.774 44.2549 125.259 46.1461 125.259C48.0551 125.259 49.3576 126.809 49.3576 128.588V128.623C49.3576 130.402 48.0908 131.917 46.1818 131.917Z" fill="#576270"/>
<path d="M55.4067 134.753H58.7966V127.707L61.9724 132.499H62.0437L65.2373 127.672V134.753H68.6807V122.423H65.0232L62.0437 127.197L59.0642 122.423H55.4067V134.753Z" fill="#576270"/>
<path d="M70.6105 134.753H74.2501L75.1422 132.552H79.9594L80.8693 134.753H84.5803L79.2636 122.335H75.9272L70.6105 134.753ZM76.1592 129.892L77.5686 126.386L78.9603 129.892H76.1592Z" fill="#576270"/>
<path d="M86.5771 134.753H90.0562V122.423H86.5771V134.753Z" fill="#576270"/>
<path d="M93.0562 134.753H96.4817V127.989L101.816 134.753H104.849V122.423H101.424V128.94L96.2855 122.423H93.0562V134.753Z" fill="#576270"/>
<path d="M112.684 134.965C115.717 134.965 117.734 133.468 117.734 130.949V130.913C117.734 128.606 115.949 127.69 113.077 127.073C111.346 126.686 110.918 126.439 110.918 125.875V125.84C110.918 125.4 111.329 125.048 112.167 125.048C113.273 125.048 114.522 125.47 115.664 126.263L117.395 123.85C116.039 122.775 114.379 122.212 112.256 122.212C109.259 122.212 107.421 123.867 107.421 126.157V126.193C107.421 128.729 109.473 129.469 112.131 130.068C113.826 130.455 114.237 130.737 114.237 131.248V131.283C114.237 131.812 113.737 132.129 112.809 132.129C111.364 132.129 109.99 131.618 108.759 130.649L106.832 132.921C108.367 134.278 110.472 134.965 112.684 134.965Z" fill="#576270"/>
</svg>
