<svg width="239" height="87" viewBox="0 0 239 87" fill="none" xmlns="http://www.w3.org/2000/svg">
<path fill-rule="evenodd" clip-rule="evenodd" d="M85.6754 26.1806V52.3611H92.1568H98.6381V42.2917C98.6381 35.6458 98.6381 32.0208 98.6381 31.6181C98.8407 30.6111 99.0432 29.6042 99.6508 28.7986C100.461 27.3889 101.879 26.7847 103.499 26.9861C105.727 27.1875 107.145 28.3958 107.55 31.0139C107.55 31.4167 107.55 35.4444 107.55 41.8889V52.1597H114.031H120.513V40.0764C120.513 29.8056 120.513 27.7917 120.31 26.7847C119.905 23.1597 118.69 20.3403 116.462 18.3264C114.639 16.5139 112.411 15.5069 109.778 15.1042C108.765 14.9028 105.93 15.1042 105.119 15.3056C102.689 15.9097 100.866 16.7153 99.2458 18.5278L98.2331 19.3333V9.66667V0H91.7517H85.2703V26.1806H85.6754ZM223.404 0.402779C222.999 1.20834 209.834 32.8264 209.834 32.8264C209.834 32.8264 213.277 32.8264 217.531 32.8264H225.227L232.114 16.5139C235.962 7.45139 239 0 239 0C239 0 235.557 0 231.303 0H223.607L223.404 0.402779ZM57.3195 15.3056C54.4839 15.7083 52.2559 16.5139 50.028 17.9236C45.572 20.7431 42.7364 25.5764 41.9263 31.2153C41.5212 33.8333 41.7237 37.0556 42.3314 39.4722C43.9517 45.7153 48.2051 50.5486 53.6737 52.3611C55.6992 52.9653 56.5093 53.1667 58.9398 53.1667C60.7627 53.1667 61.3703 53.1667 61.978 52.9653C64.611 52.3611 66.4339 51.3542 68.0542 49.7431L68.8644 48.9375V50.5486V52.1597H75.1432H81.422V34.0347V15.9097H75.1432H68.8644V17.5208V19.1319L68.2568 18.5278C66.839 16.9167 64.8136 15.9097 62.1805 15.3056C61.3703 15.1042 60.9653 15.1042 59.3449 15.1042C58.3322 15.3056 57.522 15.3056 57.3195 15.3056ZM139.957 15.3056C136.514 15.7083 132.868 17.3194 130.235 19.3333C125.171 23.5625 122.538 30.2083 123.551 37.0556C124.564 44.7083 130.032 50.5486 137.729 52.5625C139.349 52.9653 140.969 53.1667 142.995 53.1667C146.641 53.1667 149.274 52.5625 152.109 51.1528C157.781 48.3333 161.426 43.2986 162.236 37.0556C162.439 35.4445 162.439 32.8264 162.236 31.4167C161.831 28.3958 160.616 25.375 158.793 22.9583C157.983 21.9514 156.363 20.1389 155.35 19.3333C152.514 17.1181 149.274 15.7083 145.628 15.3056C144.21 15.1042 141.375 15.1042 139.957 15.3056ZM181.275 15.3056C177.832 15.7083 174.389 17.1181 171.756 19.3333C170.743 20.1389 168.92 21.9514 168.313 22.9583C166.49 25.375 165.477 28.3958 164.869 31.4167C164.667 32.8264 164.667 35.6458 164.869 37.0556C166.085 45.1111 171.958 51.3542 180.06 52.9653C181.681 53.3681 182.491 53.3681 184.314 53.3681C187.757 53.3681 190.795 52.7639 193.631 51.1528C201.125 47.3264 205.175 38.8681 203.353 30.2083C201.732 22.1528 195.251 16.3125 186.947 15.3056C185.529 15.1042 182.693 15.1042 181.275 15.3056ZM0 16.1111C0 16.1111 3.44322 24.3681 7.69661 34.4375C11.95 44.5069 15.3932 52.7639 15.3932 52.7639C15.3932 52.7639 14.178 55.7847 12.5576 59.4097C10.9373 63.0347 9.72203 65.8542 9.72203 66.0556C9.72203 66.257 12.7602 66.0556 16.6085 66.0556H23.4949L33.8246 41.2847C39.4958 27.5903 44.1542 16.5139 44.1542 16.3125C44.1542 16.3125 42.7364 16.1111 37.2678 16.3125H30.3814L26.128 26.7847C24.3051 32.4236 22.4822 37.2569 22.4822 37.2569C22.4822 37.2569 20.6593 32.4236 18.2288 26.7847L14.178 16.3125H7.08898C3.24068 16.1111 0 16.1111 0 16.1111ZM63.5983 26.9861C66.2314 27.5903 68.2568 29.6042 69.0669 32.2222C69.2695 33.2292 69.2695 35.0417 69.0669 36.0486C68.4593 38.6667 66.4339 40.6806 63.8008 41.2847C62.7881 41.4861 60.9653 41.4861 59.9525 41.2847C57.7246 40.6806 55.6992 39.0695 54.889 37.0556C53.8763 34.8403 54.2814 32.0208 55.4966 30.007C57.3195 27.3889 60.3576 26.382 63.5983 26.9861ZM144.413 27.1875C147.248 27.5903 149.476 29.8056 150.084 32.625C150.286 33.632 150.286 35.2431 150.084 36.25C149.476 38.8681 147.451 40.6806 145.02 41.4861C144.21 41.6875 141.982 41.6875 141.172 41.4861C139.147 40.8819 137.526 39.4722 136.514 37.6597C135.906 36.4514 135.906 35.8472 135.906 34.4375C135.906 33.2292 136.108 32.625 136.514 31.6181C137.121 30.4097 137.931 29.2014 139.147 28.3958C140.362 27.1875 142.387 26.7847 144.413 27.1875ZM185.529 27.1875C187.959 27.5903 189.985 29.2014 190.795 31.4167C191.2 32.4236 191.403 33.0278 191.403 34.2361C191.403 35.6458 191.2 36.25 190.795 37.4583C189.985 39.2708 188.162 40.6806 186.136 41.2847C185.326 41.4861 183.098 41.4861 182.288 41.2847C179.858 40.6806 177.832 38.6667 177.225 36.0486C177.022 35.0417 177.022 33.2292 177.225 32.2222C178.035 29 180.87 26.7847 184.111 26.7847C184.516 26.9861 185.124 26.9861 185.529 27.1875ZM213.075 36.0486C209.226 36.4514 206.391 39.2708 205.581 42.8958C205.378 43.9028 205.378 45.7153 205.581 46.7222C206.391 49.9445 208.821 52.1597 212.062 52.9653C212.467 52.9653 213.277 53.1667 213.885 53.1667C216.315 53.1667 218.341 52.3611 219.961 50.75C221.784 48.9375 222.392 47.125 222.392 44.7083C222.392 41.6875 220.974 39.0695 218.543 37.6597C216.923 36.25 214.695 35.8472 213.075 36.0486ZM106.335 55.7847C103.702 56.5903 102.486 59.6111 103.904 61.8264C104.309 62.4306 105.119 63.2361 105.727 63.4375C106.335 63.6389 106.335 63.6389 107.55 63.6389C108.563 63.6389 108.765 63.6389 109.373 63.4375C110.183 63.0347 110.993 62.2292 111.398 61.4236C112.411 59.4097 111.398 56.9931 109.373 55.9861C108.765 55.5833 108.563 55.5833 107.753 55.5833C106.942 55.5833 106.74 55.5833 106.335 55.7847ZM95.3975 55.9861C91.9542 56.5903 89.7263 58.8056 88.7136 62.4306C88.511 63.0347 88.511 63.6389 88.511 64.4445V65.8542H87.0932H85.6754V68.875V71.8958H87.0932H88.511V79.1458V86.3958H92.3593H96.2076V79.1458V71.8958H98.8407H101.474V68.875V65.8542H98.8407H96.2076V65.25C96.4102 63.8403 97.0178 62.8333 98.2331 62.6319C99.0432 62.4306 100.258 62.4306 101.069 62.8333C101.474 63.0347 101.676 63.0347 101.676 63.0347C101.676 63.0347 101.676 61.625 101.676 59.8125V56.5903L101.069 56.3889C100.258 55.9861 99.2458 55.9861 97.828 55.9861C96.8153 55.7847 96.0051 55.9861 95.3975 55.9861ZM126.184 65.4514C124.564 65.8542 123.348 66.6597 122.538 67.6667L122.133 68.2708V67.0625V65.8542H118.285H114.436V76.125V86.3958H118.285H122.133V80.757C122.133 77.5347 122.133 74.9167 122.133 74.5139C122.336 73.7083 122.741 72.9028 123.146 72.5C124.158 71.6945 125.981 71.8958 126.792 72.9028C127.399 73.7083 127.399 73.7083 127.399 80.1528V86.1945H131.247H135.096V79.3472C135.096 72.0972 135.096 71.2917 134.691 69.8819C134.286 68.6736 133.881 67.6667 132.868 66.8611C132.058 66.0556 131.247 65.4514 130.032 65.25C129.019 65.25 126.994 65.25 126.184 65.4514ZM145.425 65.25C144.21 65.4514 142.387 66.0556 141.375 66.8611C139.147 68.4722 137.729 70.8889 137.121 73.9097C136.919 75.1181 136.919 77.3333 137.121 78.5417C137.526 80.3542 138.134 82.1667 139.147 83.375C140.564 85.1875 142.387 86.3958 144.615 86.7986C145.831 87 147.856 87 148.869 86.5972C150.084 86.1945 150.894 85.7917 151.907 84.9861L152.717 84.1806V85.1875V86.1945H156.565H160.414V75.9236V65.6528H156.565H152.717V66.6597V67.6667L152.109 67.4653C151.097 66.4583 149.679 65.6528 148.058 65.4514C147.451 65.25 146.033 65.25 145.425 65.25ZM174.794 65.4514C173.376 65.6528 171.958 66.6597 171.148 67.6667L170.743 68.0695V66.8611V65.6528H166.895H163.047V75.9236V86.1945H166.895H170.743V80.3542C170.743 74.1111 170.743 74.1111 171.148 73.1042C171.553 72.2986 172.364 71.8958 173.174 71.8958C173.984 71.8958 174.389 72.0972 174.997 72.5C175.807 73.3056 175.807 73.1042 175.807 79.9514V85.9931H179.655H183.503V78.5417C183.503 71.0903 183.503 71.0903 183.301 70.2847C183.098 69.882 182.896 69.0764 182.693 68.4722C182.288 67.6667 182.086 67.4653 181.478 66.8611C180.668 66.0556 180.06 65.6528 179.25 65.25C177.832 65.25 176.212 65.0486 174.794 65.4514ZM194.846 65.4514C191.403 66.0556 188.77 67.6667 187.149 70.4861C186.744 71.2917 186.339 72.2986 185.934 73.3056C185.731 74.3125 185.731 74.5139 185.731 76.125C185.731 77.9375 185.731 78.5417 186.339 79.9514C187.554 83.375 190.39 85.9931 194.238 86.7986C194.846 87 195.453 87 196.871 87C198.897 87 199.707 86.7986 201.125 86.1945L201.935 85.7917V82.3681V78.9444L201.327 79.3472C200.314 79.9514 199.707 80.1528 198.492 80.1528C197.276 80.1528 196.669 80.1528 195.858 79.75C195.048 79.3472 194.441 78.7431 194.036 77.9375C193.833 77.3333 193.833 77.3333 193.833 76.3264C193.833 75.5208 193.833 75.3195 194.036 74.7153C194.643 73.1042 196.061 72.2986 198.086 72.0972C199.504 72.0972 200.112 72.0972 202.137 73.1042C202.137 73.1042 202.137 71.4931 202.137 69.6806V66.257L201.53 66.0556C199.302 65.25 196.871 65.0486 194.846 65.4514ZM212.264 65.4514C206.391 66.4583 202.745 71.4931 203.15 77.3333C203.353 79.3472 203.96 81.1597 204.973 82.5695C206.391 84.7847 208.619 86.1945 211.454 86.7986C212.669 87 215.91 87 217.328 86.7986C219.353 86.3958 221.176 85.3889 222.594 83.9792C223.202 83.375 224.214 81.9653 224.214 81.9653C224.214 81.9653 222.797 81.3611 220.974 80.757L217.733 79.5486L217.328 79.9514C216.72 80.5556 216.315 80.7569 215.505 80.9583C213.277 81.5625 211.049 80.3542 210.644 78.3403V77.9375H217.733H224.822V76.125C224.822 74.9167 224.822 74.1111 224.619 73.7083C224.214 71.2917 223.202 69.6806 221.784 68.0695C220.366 66.6597 218.746 65.8542 216.518 65.4514C215.708 65.25 213.277 65.25 212.264 65.4514ZM103.702 76.125V86.3958H107.55H111.398V76.125V65.8542H107.55H103.702V76.125ZM215.303 71.0903C215.91 71.2917 216.113 71.4931 216.72 71.8958C217.125 72.2986 217.531 72.7014 217.531 73.3056V73.7083H214.087C210.239 73.7083 210.442 73.7083 210.847 72.9028C211.454 71.4931 213.277 70.6875 215.303 71.0903ZM149.881 72.0972C150.894 72.2986 152.109 73.3056 152.514 74.3125C153.527 76.5278 152.514 79.1458 150.084 79.9514C149.274 80.1528 148.058 80.1528 147.248 79.9514C146.033 79.5486 144.818 78.5417 144.615 77.3333C144.413 76.7292 144.413 76.5278 144.413 75.9236C144.413 75.1181 144.413 74.9167 144.818 74.3125C145.628 72.5 147.653 71.6945 149.881 72.0972Z" fill="#586371"/>
</svg>
