<svg width="69" height="83" viewBox="0 0 69 83" fill="none" xmlns="http://www.w3.org/2000/svg">
<g clip-path="url(#clip0_1497_19949)">
<path d="M64.8973 31.7979L54.4829 42.2571C55.0615 44.1617 55.3508 46.1954 55.3508 48.2292C55.3508 53.7493 53.1972 58.9466 49.34 62.8527C45.4507 66.7588 40.2757 68.8893 34.7792 68.8893C29.2827 68.8893 24.1077 66.7265 20.2183 62.8527C16.329 58.9466 14.2076 53.7493 14.2076 48.2292C14.2076 46.1631 14.4968 44.1617 15.0754 42.2571L4.62889 31.7979C1.99315 36.6724 0.482422 42.2894 0.482422 48.2614C0.482422 67.2753 15.8469 82.7058 34.7792 82.7058C53.7115 82.7058 69.0759 67.2753 69.0759 48.2614C69.0759 42.2894 67.5652 36.6724 64.8973 31.7979Z" fill="#576270"/>
<path d="M27.9004 55.1046H41.6255V33.2177L64.9936 9.74902L55.2864 0L34.779 20.5956L14.2717 0L4.56445 9.74902L27.9004 33.1854V55.1046Z" fill="#576270"/>
</g>
<defs>
<clipPath id="clip0_1497_19949">
<rect width="69" height="83" fill="white"/>
</clipPath>
</defs>
</svg>
